<svg width="265px" height="271px" viewBox="0 0 265 271" fill="none" xmlns="http://www.w3.org/2000/svg">
<path fill-rule="evenodd" clip-rule="evenodd" d="M112.359 5.24993C106.859 8.19293 97.2703 13.5859 91.0493 17.2359C84.8293 20.8859 80.0253 23.3089 80.3733 22.6209C80.7223 21.9329 80.4113 22.0579 79.6833 22.8989C78.9553 23.7389 72.3023 28.4049 64.8993 33.2659C42.8523 47.7429 23.3333 63.3659 10.6093 76.7159C6.20734 81.3349 2.85934 85.7169 2.85934 86.8589C2.85934 89.6799 3.71634 89.4019 8.21534 85.1199L12.1553 81.3699L9.14934 85.8699C5.80834 90.8699 3.14333 97.4879 4.08933 98.4339C4.67633 99.0199 11.4923 92.1209 13.1523 89.2609C13.5883 88.5089 14.8573 87.4059 15.9733 86.8089C17.1893 86.1579 16.1703 87.9719 13.4303 91.3359C10.9163 94.4219 8.85934 97.8999 8.85934 99.0639C8.85934 100.985 9.02034 101.042 10.6093 99.6769C14.3703 96.4469 14.9183 96.5459 14.4443 100.366C14.1963 102.367 13.4493 104.659 12.7843 105.461C12.1183 106.262 11.7743 107.118 12.0173 107.362C12.2613 107.606 15.5263 104.421 19.2733 100.284C23.0193 96.1469 26.3163 92.9929 26.5983 93.2749C26.8803 93.5579 24.3473 96.8039 20.9703 100.49C15.2233 106.762 14.8713 107.423 15.4873 110.781C15.8493 112.755 16.5343 114.521 17.0093 114.705C17.4833 114.89 17.6173 115.452 17.3063 115.955C16.9953 116.458 17.2143 116.87 17.7923 116.87C18.3693 116.87 19.4043 115.97 20.0913 114.87C22.1043 111.647 22.7323 112.566 21.2853 116.62C20.5493 118.683 19.9343 121.045 19.9183 121.87C19.8933 123.203 19.9973 123.203 20.8593 121.87C22.9283 118.669 21.8093 123.36 18.8483 130.303C17.2223 134.116 16.0443 137.388 16.2313 137.575C16.4173 137.761 18.0753 134.462 19.9153 130.243C21.7543 126.023 23.4263 123.07 23.6293 123.679C23.8323 124.288 21.6683 130.093 18.8203 136.578C15.9723 143.064 12.8413 150.62 11.8633 153.37C10.8843 156.12 9.12734 160.845 7.95834 163.87C6.78834 166.898 6.45034 168.584 7.20634 167.62C7.96134 166.657 8.93034 165.87 9.35934 165.87C9.78834 165.87 10.7743 165.083 11.5513 164.12C12.8343 162.529 12.8953 162.597 12.2213 164.87C11.8123 166.245 11.4523 168.495 11.4193 169.87C11.3703 171.902 11.7803 172.311 13.6093 172.057C15.3743 171.812 15.8693 172.243 15.9063 174.057C15.9383 175.641 16.5513 174.837 17.8513 171.509C18.8963 168.835 20.4053 165.91 21.2063 165.009C22.0073 164.108 24.4983 159.32 26.7423 154.37C28.9863 149.42 31.3353 145.501 31.9633 145.661C32.6773 145.843 32.8493 145.281 32.4223 144.161C31.9313 142.87 32.0453 142.672 32.8333 143.453C34.1743 144.783 33.0643 148.115 31.5843 147.2C30.9103 146.783 30.7613 147.171 31.1783 148.258C31.6213 149.414 31.4583 149.74 30.6783 149.258C29.9023 148.779 29.7323 149.096 30.1623 150.218C30.9743 152.333 28.9133 157.021 27.5433 156.175C26.9203 155.79 26.7713 156.199 27.1623 157.218C27.5163 158.14 27.3083 159.985 26.7013 161.318C26.0933 162.651 25.9123 164.559 26.2993 165.556C26.9653 167.275 27.0833 167.266 28.5653 165.37C30.0423 163.48 30.0003 164.007 28.3443 168.131C27.8153 169.448 28.0203 169.745 29.1563 169.309C29.9923 168.989 31.2593 167.296 31.9713 165.548C32.6833 163.8 33.9183 161.876 34.7153 161.272C35.5123 160.668 35.8803 159.713 35.5323 159.15C34.8953 158.12 40.8743 143.329 43.6413 139.089C46.1853 135.191 46.0623 137.355 43.3963 143.382C41.9953 146.55 40.6643 150.093 40.4383 151.256C39.7983 154.554 36.8203 161.19 35.1243 163.098C34.2803 164.048 33.4703 165.905 33.3263 167.224C33.1813 168.542 32.5823 170.519 31.9953 171.616C30.4433 174.516 28.9323 181.87 29.8883 181.87C30.3373 181.87 31.2123 180.331 31.8333 178.449C32.4543 176.567 34.2283 173.281 35.7753 171.145C38.3423 167.601 49.6823 143.097 54.8323 129.966C59.2003 118.829 74.9873 86.4569 77.0683 84.3699C77.6173 83.8199 76.1583 87.1949 73.8263 91.8699C69.7713 99.9979 65.7423 109.294 58.2213 127.87C56.3293 132.545 54.3633 137.27 53.8533 138.37C48.5133 149.889 39.8593 170.662 39.8593 171.963C39.8593 172.872 38.9213 175.735 37.7753 178.326C36.6293 180.917 35.9233 183.268 36.2063 183.55C36.4893 183.833 37.6633 181.996 38.8153 179.467C39.9673 176.939 41.0713 174.87 41.2693 174.87C41.4673 174.87 41.3943 177.795 41.1073 181.37C40.7643 185.647 40.9513 187.87 41.6563 187.87C42.2443 187.87 42.8693 186.636 43.0433 185.129C43.2493 183.343 44.0463 182.257 45.3273 182.013C46.9903 181.697 47.0993 181.876 46.0293 183.166C45.0493 184.346 45.0353 184.86 45.9653 185.435C46.7003 185.89 46.9073 185.757 46.4973 185.094C46.1283 184.497 46.2913 183.721 46.8593 183.37C47.4273 183.019 47.6523 182.344 47.3593 181.87C47.0663 181.396 47.2843 180.726 47.8433 180.38C48.4023 180.035 48.8593 180.454 48.8593 181.311C48.8593 182.576 49.2363 182.493 50.8593 180.87C53.2123 178.517 55.3203 178.228 54.4973 180.37C53.7333 182.362 54.7573 182.266 57.1633 180.12C59.0643 178.424 59.1023 178.448 58.4053 180.87C58.0093 182.245 56.8153 184.125 55.7513 185.048C54.6583 185.995 54.2423 186.988 54.7943 187.33C55.3323 187.662 55.5193 188.592 55.2113 189.396C54.9023 190.201 54.2893 190.635 53.8473 190.363C53.4063 190.09 53.2813 190.768 53.5693 191.869C53.8573 192.969 54.7633 193.87 55.5833 193.87C56.4023 193.87 56.8383 194.433 56.5503 195.12C55.4243 197.816 45.3453 219.872 41.1753 228.769C38.7523 233.938 36.9253 238.888 37.1153 239.769C37.3543 240.878 37.9953 240.361 39.2023 238.087C40.1603 236.282 41.3753 235.071 41.9023 235.396C42.4283 235.722 42.8593 235.094 42.8593 234C42.8593 232.907 43.4833 231.389 44.2463 230.626C45.0093 229.863 46.7883 227.018 48.2003 224.304C52.6933 215.664 51.0543 220.167 45.2953 232.282C42.2353 238.72 39.9323 244.523 40.1783 245.179C40.4233 245.834 46.1143 235.195 52.8243 221.536C59.5343 207.877 65.2553 196.933 65.5373 197.215C65.8203 197.498 61.2833 207.282 55.4553 218.959C49.6273 230.636 44.8813 240.68 44.9093 241.28C44.9363 241.879 46.7423 238.882 48.9213 234.62C51.1003 230.357 53.3093 226.87 53.8303 226.87C54.3513 226.87 57.0383 222.707 59.8023 217.62C62.5663 212.532 64.8553 208.82 64.8903 209.37C64.9243 209.92 66.0653 208.233 67.4253 205.62C70.0863 200.508 70.5263 200.047 70.5263 202.37C70.5263 203.195 70.1243 203.87 69.6333 203.87C69.1433 203.87 69.0193 204.32 69.3593 204.87C69.6993 205.42 69.5963 205.87 69.1313 205.87C68.6653 205.87 68.2233 206.882 68.1483 208.12C68.0733 209.358 70.9243 204.745 74.4853 197.87C78.0463 190.995 80.7393 186.045 80.4693 186.87C77.9003 194.746 62.7443 226.919 56.1243 238.553C53.8763 242.504 51.7503 246.779 51.3993 248.053C50.0463 252.978 58.5853 237.121 72.9033 208.12C81.1173 191.483 88.0573 177.87 88.3243 177.87C88.9963 177.87 87.4423 181.786 84.3403 187.907C82.9023 190.746 81.9473 193.291 82.2183 193.562C82.4893 193.834 83.4923 192.552 84.4463 190.713C85.4893 188.705 86.3613 187.902 86.6313 188.703C86.8793 189.436 81.1613 201.754 73.9263 216.076C66.6913 230.398 61.0063 242.35 61.2923 242.636C61.5783 242.922 62.0953 242.419 62.4403 241.519C62.7863 240.618 63.4833 240.137 63.9893 240.45C64.4953 240.763 64.8443 240.648 64.7653 240.194C64.3733 237.935 64.9703 235.821 65.8483 236.363C66.4143 236.713 66.5823 236.312 66.2413 235.422C65.8943 234.52 66.1783 233.87 66.9193 233.87C67.6193 233.87 67.8983 233.576 67.5383 233.216C66.5633 232.24 74.0643 218.879 75.1953 219.578C75.7303 219.908 75.8723 219.7 75.5103 219.115C74.6463 217.716 75.8163 214.725 76.9523 215.428C77.4383 215.728 77.5403 215.202 77.1783 214.258C76.6953 213.002 76.8743 212.761 77.8443 213.36C78.7043 213.892 78.9293 213.792 78.4853 213.073C77.8253 212.007 98.0803 170.439 101.241 166.37C103.678 163.234 103.121 166.207 100.371 171.018C97.3293 176.34 97.0513 178.741 100.041 173.87C108.675 159.804 116.568 148.888 118.109 148.88C119.072 148.874 119.859 148.42 119.859 147.87C119.859 147.32 120.361 146.87 120.974 146.87C121.627 146.87 121.342 148.009 120.285 149.62C113.285 160.291 97.1753 189.186 90.3173 203.37C85.7973 212.72 78.4753 227.705 74.0473 236.669C69.6193 245.633 65.7463 254.408 65.4393 256.169C65.1333 257.93 65.1623 258.695 65.5053 257.87C66.7623 254.839 69.5823 249.265 71.8293 245.37C73.0983 243.17 78.1383 233.27 83.0283 223.37C87.9193 213.47 93.8193 201.69 96.1403 197.192C101.781 186.258 120.52 155.209 122.935 152.794C123.993 151.736 124.605 150.87 124.295 150.87C123.985 150.87 125.618 148.18 127.925 144.891C130.232 141.603 132.51 139.155 132.989 139.45C133.467 139.746 133.859 139.297 133.859 138.452C133.859 137.607 134.98 136.182 136.35 135.284C137.721 134.386 138.631 133.311 138.374 132.894C138.117 132.478 138.861 131.29 140.028 130.254C142.145 128.374 142.147 128.376 140.843 130.87C140.124 132.245 137.863 135.395 135.818 137.87C125.512 150.343 103.335 185.569 103.598 189.05C103.675 190.075 103.389 190.698 102.963 190.434C101.758 189.689 98.8303 196.63 99.5543 198.516C99.9863 199.643 99.8173 199.962 99.0403 199.482C98.2773 199.01 98.0903 199.309 98.4933 200.359C98.8903 201.392 98.6223 201.85 97.7323 201.661C96.8303 201.47 96.4443 202.162 96.6083 203.678C96.7443 204.948 96.4393 205.729 95.9293 205.414C94.8633 204.754 93.3603 208.568 93.7153 211.031C93.8473 211.945 93.4883 212.981 92.9183 213.333C92.2893 213.722 92.0953 213.266 92.4233 212.172C92.7213 211.181 91.3513 213.426 89.3783 217.16C87.4053 220.895 86.1013 224.452 86.4793 225.065C86.8583 225.678 86.7443 225.917 86.2253 225.596C85.7063 225.276 83.1723 229.031 80.5943 233.942C78.0153 238.852 76.3713 242.87 76.9413 242.87C77.5113 242.87 77.6943 243.327 77.3493 243.886C77.0033 244.445 76.3333 244.663 75.8593 244.37C74.4273 243.485 73.8303 245.475 74.5093 248.869L75.1503 252.074L77.5233 246.91C78.8283 244.07 80.7723 240.806 81.8433 239.657C82.9143 238.507 83.5543 237.185 83.2653 236.719C82.9773 236.252 83.7433 235.87 84.9673 235.87C86.1913 235.87 86.9083 235.586 86.5613 235.239C86.2143 234.891 86.3793 233.766 86.9293 232.739C87.5973 231.491 87.5963 230.87 86.9263 230.87C85.6863 230.87 86.6473 227.971 88.6663 225.62C89.4933 224.657 89.7623 223.852 89.2643 223.829C88.7663 223.807 89.9343 222.398 91.8593 220.698C93.7843 218.997 94.7973 217.917 94.1093 218.297C93.4213 218.677 92.8593 218.502 92.8593 217.907C92.8593 213.344 122.46 160.86 129.363 153.183C130.26 152.186 133.164 148.417 135.817 144.808C141.155 137.547 152.377 125.337 148.946 130.524C147.798 132.259 146.859 134.035 146.859 134.47C146.859 134.905 145.786 136.41 144.475 137.815C141.479 141.025 126.781 162.703 118.469 176.171C115.006 181.78 108.888 193.007 104.872 201.12C100.857 209.232 97.2363 215.87 96.8263 215.87C96.4163 215.87 96.1273 216.433 96.1833 217.12C96.3373 219.016 92.7663 226.87 91.7503 226.87C91.2603 226.87 90.8593 227.756 90.8593 228.839C90.8593 230.184 90.3813 230.624 89.3483 230.227C88.2523 229.807 88.0123 230.105 88.4753 231.312C89.2533 233.338 85.9533 241.046 84.6533 240.242C84.1433 239.927 83.8093 240.277 83.9113 241.02C84.2623 243.583 83.8563 244.986 82.9283 244.413C82.4163 244.096 81.6723 244.364 81.2743 245.008C80.8223 245.739 80.9833 245.911 81.7043 245.465C82.3393 245.073 82.8593 245.202 82.8593 245.752C82.8593 246.302 82.4443 247.009 81.9363 247.322C81.4283 247.636 80.7223 249.218 80.3663 250.839C80.0103 252.459 78.7973 255.692 77.6713 258.023C76.1023 261.271 75.8773 262.668 76.7083 263.999C77.5663 265.374 77.4353 265.83 76.0763 266.187C75.0153 266.466 75.3703 266.682 77.0023 266.754C78.5143 266.82 79.8913 266.228 80.2213 265.37C80.5373 264.545 81.2873 263.87 81.8873 263.87C82.4863 263.87 82.7553 264.229 82.4843 264.668C82.2133 265.107 82.3933 266.115 82.8833 266.909C83.6443 268.14 83.9663 268.148 85.0673 266.965C86.0333 265.927 86.0433 265.755 85.1093 266.282C84.4223 266.67 83.8593 266.542 83.8593 265.996C83.8593 264.893 87.7203 263.398 88.5153 264.193C88.7933 264.471 88.5443 265.59 87.9613 266.679C85.4193 271.429 93.2803 271.989 98.2203 267.411C99.6053 266.127 102.004 264.636 103.549 264.098C105.095 263.56 106.261 262.656 106.141 262.09C106.021 261.523 106.606 260.797 107.443 260.476C108.37 260.121 108.705 260.31 108.302 260.962C107.939 261.549 110.841 259.903 114.75 257.303C122.719 252.005 124.16 250.437 117.445 254.372C115.018 255.795 112.781 256.553 112.474 256.056C111.431 254.369 137.63 234.691 159.359 220.841C163.209 218.387 166.509 216.04 166.692 215.625C166.876 215.21 167.593 214.87 168.287 214.87C168.981 214.87 170.406 213.884 171.454 212.68C173.13 210.754 172.757 210.833 168.359 213.341C165.609 214.909 157.059 220.348 149.359 225.428C141.659 230.507 132.884 235.826 129.859 237.248L124.359 239.834L127.359 237.251C129.009 235.83 132.48 232.845 135.073 230.617C137.665 228.389 141.685 225.309 144.006 223.773C146.327 222.236 148.326 220.297 148.448 219.463C148.644 218.128 148.385 218.135 146.273 219.518C144.955 220.382 144.171 221.566 144.532 222.149C144.945 222.819 144.554 222.967 143.471 222.551C142.325 222.112 141.99 222.273 142.462 223.036C142.926 223.788 142.72 223.902 141.859 223.37C140.938 222.801 140.79 222.949 141.359 223.87C141.896 224.739 141.778 224.938 141.007 224.461C140.368 224.067 138.611 224.598 137.102 225.643C135.593 226.687 133.684 227.907 132.859 228.353C130.374 229.696 132.982 227.401 136.943 224.76C140.731 222.234 151.423 212.939 148.859 214.401C148.034 214.871 145.007 216.752 142.132 218.579C137.327 221.634 131.859 224.258 131.859 223.508C131.859 223.01 144.475 214.571 155.5 207.695C169.743 198.812 169.81 198.763 165.359 200.514C163.159 201.38 159.423 203.389 157.057 204.98C151.566 208.672 146.465 211.317 147.233 210.073C147.56 209.544 153.01 205.857 159.343 201.88C165.677 197.902 170.859 194.461 170.859 194.233C170.859 193.524 164.745 196.923 155.057 203.018C149.94 206.236 145.44 208.856 145.057 208.84C144.673 208.823 145.156 208.345 146.13 207.778C147.104 207.211 147.643 206.33 147.328 205.82C147.013 205.31 147.408 205.143 148.206 205.45C149.89 206.096 151.372 204.305 149.905 203.398C149.362 203.063 147.58 203.48 145.945 204.325C144.31 205.171 142.745 205.495 142.467 205.045C141.712 203.823 145.838 200.648 147.402 201.248C148.277 201.584 148.56 201.254 148.201 200.319C147.895 199.522 148.031 198.86 148.502 198.848C148.973 198.836 150.484 197.905 151.859 196.781L154.359 194.736L151.859 195.951C150.484 196.619 145.939 199.349 141.759 202.018C137.579 204.687 133.529 206.86 132.759 206.849C131.271 206.826 137.834 202.437 155.158 191.87C161.02 188.295 165.825 185.105 165.837 184.781C165.869 183.931 160.468 184.376 158.887 185.353C157.993 185.905 157.787 185.796 158.264 185.025C158.656 184.39 158.527 183.87 157.977 183.87C157.427 183.87 156.699 184.32 156.359 184.87C155.758 185.842 157.066 186.275 159.609 185.945C161.992 185.635 160.839 186.839 156.762 188.919C154.509 190.069 152.409 190.753 152.095 190.44C151.782 190.126 151.976 189.87 152.526 189.87C153.076 189.87 153.526 189.195 153.526 188.37C153.526 186.357 153.33 186.409 147.634 189.914C144.913 191.588 142.954 192.525 143.281 191.997C143.607 191.468 147.437 188.981 151.792 186.469C156.147 183.957 160.981 180.719 162.535 179.272L165.359 176.642L162.644 178.256C159.505 180.122 158.473 180.304 159.384 178.829C159.738 178.257 156.984 179.651 153.264 181.928C149.545 184.205 145.344 186.227 143.93 186.422C142.516 186.617 141.924 186.534 142.615 186.238C143.306 185.942 143.682 185.392 143.45 185.017C142.698 183.8 176.68 164.114 204.069 149.9C206.659 148.556 208.597 147.275 208.377 147.054C207.75 146.427 174.405 164.02 158.229 173.512C153.207 176.459 148.576 178.87 147.937 178.87C146.586 178.87 150.463 171.858 156.231 163.87C161.075 157.16 177.602 138.147 187.738 127.623C191.842 123.363 194.887 119.565 194.506 119.184C193.846 118.524 179.928 132.85 176.936 137.269C176.154 138.424 172.738 142.52 169.345 146.37C160.77 156.101 153.091 166.225 147.591 175.051C144.074 180.693 141.527 183.472 137.294 186.282C134.201 188.335 131.482 189.826 131.251 189.595C131.02 189.364 131.737 188.023 132.845 186.615C133.953 185.207 134.859 183.628 134.859 183.106C134.859 181.913 141.816 172.632 143.473 171.614C144.15 171.198 145.677 169.283 146.867 167.358C148.056 165.433 149.41 164.093 149.875 164.38C150.34 164.667 151.046 164.376 151.444 163.732C151.896 163.001 151.735 162.829 151.014 163.275C150.379 163.667 149.859 163.621 149.859 163.172C149.859 161.784 163.525 144.862 172.715 134.87C177.52 129.645 183.435 123.12 185.858 120.37C190.196 115.445 190.166 115.461 183.811 121.37L177.359 127.369L183.83 120.62C190.112 114.067 191.723 112.664 190.279 115C188.97 117.117 191.631 115.379 196.25 111.099C198.785 108.751 200.859 106.463 200.859 106.016C200.859 104.443 197.333 105.153 195.109 107.174C193.853 108.316 192.859 108.694 192.859 108.031C192.859 107.177 191.826 107.275 189.184 108.379C185.624 109.866 185.561 109.856 187.186 108.061C188.109 107.042 188.525 105.835 188.111 105.379C187.697 104.922 187.861 104.836 188.475 105.186C189.089 105.536 190.439 104.856 191.475 103.675C192.511 102.493 192.835 101.831 192.194 102.204C191.554 102.577 190.84 102.542 190.608 102.126C190.376 101.71 190.339 102.045 190.525 102.87C190.779 103.992 190.521 103.929 189.501 102.62C188.099 100.82 186.768 100.292 186.977 101.62C187.258 103.396 186.793 104.87 185.953 104.87C185.454 104.87 185.297 103.909 185.604 102.735C185.994 101.245 188.655 99.4489 194.421 96.7849C206.134 91.3739 205.892 90.1069 194.129 95.2519C184.923 99.2779 180.991 100.083 182.507 97.6299C182.898 96.9979 182.696 96.8529 182.014 97.2749C180.706 98.0819 180.436 95.0839 181.644 93.1829C182.338 92.0929 191.138 87.8599 192.455 87.9829C192.769 88.0129 193.288 87.7739 193.609 87.4529C195.22 85.8419 190.232 87.3129 180.635 91.2789C174.766 93.7039 169.819 95.2499 169.64 94.7139C169.462 94.1789 167.215 95.3449 164.647 97.3049C162.08 99.2659 159.432 100.87 158.763 100.87C157.176 100.87 162.697 95.9939 165.609 94.8239C166.933 94.2919 167.859 93.0619 167.859 91.8359C167.859 90.6789 167.407 90.0309 166.843 90.3799C166.284 90.7259 166.128 91.4969 166.497 92.0939C166.871 92.6989 166.708 92.8949 166.128 92.5359C163.937 91.1819 158.79 94.0859 156.92 97.7299C154.775 101.914 152.022 104.585 146.359 107.975C144.159 109.292 142.211 111.045 142.03 111.87C141.641 113.646 138.723 117.067 138.115 116.459C137.883 116.227 138.714 115.015 139.963 113.766C141.566 112.163 141.854 111.368 140.942 111.064C139.324 110.525 151.664 97.8759 153.83 97.8549C155.042 97.8429 155.084 97.6649 154.033 96.9989C153.05 96.3759 153.816 95.2799 156.993 92.7639C159.35 90.8969 161.398 89.4589 161.545 89.5679C161.692 89.6769 164.86 88.3729 168.585 86.6709C172.311 84.9689 175.829 83.5669 176.403 83.5559C177.464 83.5359 180.41 80.8699 179.371 80.8699C178.492 80.8699 156.491 90.9819 155.326 91.9219C154.758 92.3799 152.98 93.2539 151.374 93.8639C148.474 94.9669 148.467 94.9599 150.312 92.9219C151.333 91.7929 151.762 90.8859 151.264 90.9049C149.451 90.9759 145.976 93.4349 143.841 96.1569C142.09 98.3909 134.186 103.305 128.371 105.776C127.827 106.007 130.414 103.148 134.121 99.4239C137.827 95.6999 140.859 92.3499 140.859 91.9809C140.859 91.0119 147.521 84.8699 148.573 84.8699C149.06 84.8699 150.022 84.3079 150.709 83.6199C151.396 82.9329 152.274 82.3299 152.659 82.2809C154.177 82.0879 171.395 73.5199 171.94 72.6869C172.26 72.1979 173.824 71.5619 175.417 71.2739C179.247 70.5789 179.463 70.2189 176.401 69.6329C175.003 69.3659 173.859 69.5829 173.859 70.1159C173.859 70.6479 173.161 70.8159 172.307 70.4879C171.453 70.1609 171.001 70.2909 171.301 70.7769C172.004 71.9129 169.013 73.0829 167.614 72.2189C166.938 71.8009 166.849 72.0439 167.369 72.8849C167.968 73.8549 167.727 74.0339 166.471 73.5509C165.315 73.1079 164.989 73.2709 165.471 74.0509C165.954 74.8319 165.628 74.9949 164.471 74.5509C163.452 74.1599 163.003 74.2939 163.366 74.8809C163.95 75.8259 161.891 76.3169 159.009 75.9219C158.173 75.8069 157.949 76.2069 158.423 76.9729C158.96 77.8429 158.678 78.0149 157.471 77.5509C156.393 77.1379 155.997 77.2849 156.407 77.9479C156.766 78.5289 156.452 78.9199 155.709 78.8179C152.981 78.4439 151.758 78.8969 152.454 80.0249C152.91 80.7619 152.727 80.9069 151.947 80.4239C151.235 79.9849 150.097 80.4419 149.218 81.5199C148.389 82.5369 147.97 82.8489 148.286 82.2129C148.661 81.4609 148.166 81.2379 146.872 81.5769C145.777 81.8629 145.171 82.5659 145.525 83.1379C145.886 83.7219 145.688 83.8819 145.073 83.5019C144.471 83.1299 143.164 83.6749 142.169 84.7119C139.661 87.3259 135.326 89.5809 136.387 87.7199C137.824 85.1989 141.147 81.9299 141.838 82.3569C142.216 82.5909 142.526 82.1269 142.526 81.3259C142.526 80.5249 142.374 79.8699 142.19 79.8699C141.379 79.8699 134.383 88.2829 134.597 89.0009C134.728 89.4389 134.138 89.5299 133.285 89.2029C132.008 88.7129 132.228 88.0599 134.538 85.4889C136.079 83.7739 135.226 84.3569 132.643 86.7859C130.059 89.2139 128.221 91.6459 128.557 92.1899C128.9 92.7459 128.659 92.8649 128.006 92.4609C127.351 92.0559 126.574 92.4489 126.223 93.3639C125.881 94.2559 124.961 94.7389 124.178 94.4389C123.39 94.1359 123.028 94.3339 123.366 94.8809C123.926 95.7879 122.551 96.3139 120.535 95.9639C120.081 95.8849 120.043 96.3579 120.449 97.0149C120.957 97.8369 120.652 98.0039 119.471 97.5509C118.315 97.1079 117.989 97.2709 118.471 98.0509C118.946 98.8209 118.639 98.9989 117.555 98.5839C116.657 98.2389 115.614 98.4569 115.237 99.0679C114.792 99.7879 115.011 99.8939 115.859 99.3699C116.751 98.8189 116.927 98.9499 116.412 99.7839C115.997 100.456 115.004 100.756 114.206 100.45C113.346 100.12 113.021 100.323 113.407 100.948C113.795 101.575 113.308 101.875 112.209 101.687C111.141 101.504 110.465 101.898 110.609 102.62C110.921 104.182 109.221 104.264 108.274 102.733C107.888 102.107 108.443 100.87 109.508 99.9829C110.574 99.0959 112.101 97.4699 112.902 96.3699C114.24 94.5339 114.219 94.4799 112.653 95.7059C111.714 96.4409 110.466 96.7449 109.878 96.3819C109.29 96.0189 108.933 96.2909 109.084 96.9859C109.235 97.6819 108.459 98.4339 107.359 98.6579C106.259 98.8809 104.909 99.5359 104.359 100.114C103.679 100.828 103.759 100.938 104.609 100.458C106.951 99.1359 105.869 100.634 103.236 102.359C101.524 103.48 100.906 103.607 101.458 102.724C101.923 101.979 102.403 100.707 102.525 99.8969C102.647 99.0869 103.534 97.8499 104.495 97.1469C105.456 96.4449 106.342 95.1879 106.464 94.3549C106.893 91.4319 111.92 83.9509 122.591 70.3569C128.513 62.8119 134.034 55.6789 134.859 54.5049C140.266 46.8099 144.113 41.9299 145.154 41.4479C145.817 41.1399 145.29 41.1579 143.984 41.4859C142.15 41.9479 141.802 41.7749 142.456 40.7269C143.927 38.3709 143.734 36.9859 142.01 37.5229C140.88 37.8749 141.069 37.4079 142.609 36.0429C146.527 32.5709 145.077 32.7319 137.609 36.5989C133.621 38.6639 130.021 40.5069 129.609 40.6949C129.197 40.8829 128.859 40.4119 128.859 39.6499C128.859 37.9729 134.97 31.8699 136.649 31.8699C138.064 31.8699 142.859 27.8699 142.859 26.6899C142.859 25.8379 140.733 25.9799 139.859 26.8899C138.867 27.9229 133.305 30.2159 130.859 30.5999C129.484 30.8169 127.932 31.4159 127.409 31.9319C125.985 33.3379 123.264 33.0629 121.859 31.3709C120.803 30.0979 121.45 29.4889 126.138 27.3429C129.175 25.9519 132.21 24.1519 132.882 23.3419C133.554 22.5319 134.724 21.8699 135.481 21.8699C136.239 21.8699 136.859 21.4199 136.859 20.8699C136.859 18.4429 130.739 21.0009 117.008 29.1649C113.768 31.0919 113.67 31.0949 114.067 29.2639C114.293 28.2219 115.047 27.4939 115.743 27.6449C116.438 27.7959 116.742 27.4899 116.418 26.9659C116.094 26.4409 118.132 24.7579 120.947 23.2249C123.763 21.6929 125.542 20.2639 124.902 20.0509C124.112 19.7879 124.285 19.0569 125.436 17.7849C126.371 16.7519 123.597 17.9239 119.271 20.3879C114.946 22.8529 110.947 24.8559 110.383 24.8389C109.82 24.8219 111.159 23.7409 113.359 22.4379C122.942 16.7619 126.125 14.4589 124.936 14.0619C124.154 13.8019 124.761 12.9139 126.511 11.7609C130.513 9.12293 127.572 9.39993 122.874 12.1039C118.871 14.4079 117.158 14.1379 118.221 11.3699C118.719 10.0719 119.224 9.99493 120.996 10.9429C122.836 11.9279 123.07 11.8629 122.553 10.5139C122.173 9.52393 122.766 8.34793 124.123 7.39693C128.235 4.51793 125.127 5.87293 116.091 10.9019C111.118 13.6689 106.798 16.5869 106.492 17.3849C106.17 18.2229 105.267 18.5799 104.356 18.2299C103.337 17.8399 102.88 18.1119 103.068 18.9969C103.228 19.7519 102.76 20.2449 102.028 20.0929C101.296 19.9409 98.1463 21.2169 95.0283 22.9279C90.2993 25.5239 89.7913 25.6529 91.9653 23.7049C93.3983 22.4209 95.4233 20.7909 96.4653 20.0829C97.5073 19.3749 97.6843 19.0709 96.8593 19.4069C96.0343 19.7429 96.2463 19.2999 97.3303 18.4219C98.4153 17.5439 99.8723 17.0449 100.568 17.3119C101.265 17.5789 101.728 17.3069 101.597 16.7059C101.466 16.1049 105.387 13.4879 110.31 10.8889C115.233 8.29093 119.433 5.64893 119.643 5.01693C119.873 4.32793 119.395 4.11093 118.448 4.47393C117.581 4.80693 117.156 5.54093 117.504 6.10493C117.859 6.67893 117.527 6.91393 116.748 6.63993C115.984 6.36993 113.236 7.21193 110.642 8.50993C102.168 12.7499 104.14 10.9569 113.609 5.81293C118.697 3.04893 122.859 0.580929 122.859 0.328929C122.859 -0.375071 122.984 -0.434071 112.359 5.24993ZM93.8593 4.88893C91.3843 6.47893 89.5053 8.12593 89.6843 8.54993C89.8633 8.97293 89.4633 9.50193 88.7953 9.72493C88.0183 9.98393 87.8583 9.63293 88.3523 8.74993C88.7773 7.99093 87.7823 8.78593 86.1433 10.5159C84.5033 12.2459 81.7433 14.3949 80.0103 15.2919C76.6813 17.0129 75.6343 18.3309 78.6093 17.0549C81.5803 15.7809 86.8723 12.5109 91.0453 9.36993C93.2373 7.71993 96.4083 5.35793 98.0923 4.11993C102.52 0.866929 99.1743 1.47493 93.8593 4.88893ZM73.6013 18.9549C72.6343 19.5179 71.3863 19.6949 70.8263 19.3499C70.2673 19.0039 69.9333 19.2609 70.0843 19.9209C70.2353 20.5799 69.7343 21.3469 68.9703 21.6249C68.0143 21.9719 67.8303 21.6989 68.3803 20.7499C68.8523 19.9349 68.8073 19.7109 68.2693 20.2029C67.7693 20.6619 67.3593 21.5239 67.3593 22.1199C67.3593 22.7159 66.7343 23.4119 65.9703 23.6659C65.0803 23.9629 64.8503 23.6939 65.3293 22.9179C66.6633 20.7599 46.4113 34.0429 43.6853 37.1149C42.7643 38.1529 41.8343 38.8589 41.6183 38.6859C41.1443 38.3039 23.8593 50.7729 23.8593 51.4969C23.8593 52.0679 28.4623 48.9719 34.1093 44.6029C36.1723 43.0079 37.8593 41.9239 37.8593 42.1949C37.8593 43.2769 24.7613 52.8969 22.9023 53.1809C21.8063 53.3479 20.5613 53.8689 20.1353 54.3379C19.7083 54.8069 20.0113 54.8119 20.8093 54.3479C21.6073 53.8839 17.6343 57.9579 11.9803 63.3999C2.04534 72.9659 -0.870664 76.4729 0.213336 77.5569C0.496336 77.8409 5.54334 73.4939 11.4283 67.8979C26.1343 53.9109 53.7243 32.4089 68.1273 23.7089C71.8493 21.4599 75.1393 19.2269 75.4363 18.7449C76.1193 17.6409 75.7943 17.6779 73.6013 18.9549ZM39.4813 30.3039C26.0203 39.9129 8.63234 53.9759 9.33734 54.6819C9.59834 54.9419 10.3843 54.7059 11.0853 54.1579C11.7863 53.6099 17.0843 49.3389 22.8593 44.6679C28.6343 39.9959 37.4093 33.3379 42.3593 29.8709C52.7243 22.6119 53.6443 21.8699 52.2773 21.8699C51.7373 21.8699 45.9793 25.6649 39.4813 30.3039ZM111.279 30.2179C110.673 31.7969 104.843 36.2989 104.892 35.1499C104.971 33.3139 108.464 30.0729 111.578 28.9489C111.698 28.9059 111.563 29.4769 111.279 30.2179ZM74.8593 34.2149C74.8593 34.4049 73.8943 35.4169 72.7133 36.4649C70.5793 38.3599 70.5743 38.3579 71.7493 36.1199C72.7233 34.2619 74.8593 32.9539 74.8593 34.2149ZM141.364 38.8779C142.144 40.1409 137.672 41.9539 136.496 40.8529C136.022 40.4079 135.936 39.5549 136.305 38.9569C137.151 37.5889 140.535 37.5369 141.364 38.8779ZM64.3653 41.8639C61.7213 44.7849 60.4753 44.3269 63.0403 41.3769C64.2323 40.0059 65.4263 39.1039 65.6943 39.3709C65.9613 39.6389 65.3633 40.7599 64.3653 41.8639ZM94.2323 40.1199C91.9593 43.9349 89.3233 46.8699 88.1713 46.8699C87.4493 46.8699 86.8593 47.3199 86.8593 47.8699C86.8593 48.4199 86.4053 48.8699 85.8513 48.8699C85.2533 48.8699 85.3513 48.0559 86.0913 46.8699C86.7783 45.7699 87.8403 44.8699 88.4503 44.8699C89.0603 44.8699 90.5943 43.5199 91.8593 41.8699C94.1673 38.8579 95.6243 37.7839 94.2323 40.1199ZM58.8593 45.3119C58.8593 45.5549 53.7223 49.5749 47.4433 54.2439C41.1643 58.9129 32.3963 65.9329 27.9583 69.8429C23.5213 73.7539 20.1413 76.3719 20.4493 75.6609C21.1893 73.9509 39.4973 58.2559 49.4543 50.7959C56.6963 45.3699 58.8593 44.1089 58.8593 45.3119ZM142.042 47.0869C141.391 47.7369 140.859 48.6619 140.859 49.1409C140.859 49.6209 141.588 49.2839 142.478 48.3939C143.369 47.5029 143.901 46.5789 143.661 46.3389C143.422 46.0989 142.693 46.4359 142.042 47.0869ZM79.8183 49.9459C78.5683 52.2819 74.8593 56.2229 74.8593 55.2139C74.8593 54.3719 79.8053 47.8699 80.4453 47.8699C80.7113 47.8699 80.4293 48.8039 79.8183 49.9459ZM138.666 52.6199C136.758 54.8419 135.596 56.8699 136.232 56.8699C136.502 56.8699 137.684 55.5199 138.859 53.8699C141.189 50.5979 141.069 49.8219 138.666 52.6199ZM11.7313 59.6199C10.4883 61.2059 10.5233 61.2409 12.1093 59.9979C13.0713 59.2429 13.8593 58.4549 13.8593 58.2479C13.8593 57.4249 13.0383 57.9539 11.7313 59.6199ZM133.731 59.6199C132.488 61.2059 132.523 61.2409 134.109 59.9979C135.072 59.2429 135.859 58.4549 135.859 58.2479C135.859 57.4249 135.038 57.9539 133.731 59.6199ZM49.8393 64.3939C49.1433 65.2319 48.3683 65.7119 48.1163 65.4609C47.4233 64.7669 48.8323 62.8699 50.0403 62.8699C50.7043 62.8699 50.6283 63.4439 49.8393 64.3939ZM44.8593 67.6909C44.8593 68.1419 41.8803 70.8979 38.2393 73.8159C34.5983 76.7339 32.0483 78.3549 32.5723 77.4189C33.3343 76.0569 43.6423 67.0559 44.6093 66.9079C44.7473 66.8869 44.8593 67.2389 44.8593 67.6909ZM183.859 71.8699C182.958 72.4519 182.834 72.8449 183.55 72.8549C184.205 72.8629 185.019 72.4199 185.359 71.8699C186.126 70.6279 185.78 70.6279 183.859 71.8699ZM143.609 73.9379C141.547 75.0269 139.859 76.1409 139.859 76.4139C139.859 76.8599 147.758 73.1679 148.776 72.2469C149.926 71.2059 146.923 72.1889 143.609 73.9379ZM173.601 75.7839C167.835 79.4809 169.867 79.1749 177.859 75.1429C179.993 74.0669 180.066 73.8919 178.359 73.9489C177.259 73.9859 175.118 74.8119 173.601 75.7839ZM16.8593 77.2149C16.8593 77.4049 15.8473 78.4169 14.6093 79.4649L12.3593 81.3699L14.2643 79.1199C16.0543 77.0059 16.8593 76.4149 16.8593 77.2149ZM128.609 81.9319C124.347 84.1109 120.859 86.1189 120.859 86.3929C120.859 86.8399 136.759 79.1899 137.776 78.2539C139.193 76.9489 135.306 78.5089 128.609 81.9319ZM165.359 79.8699C164.577 81.1359 165.901 81.1359 167.859 79.8699C169.152 79.0349 169.125 78.8989 167.668 78.8849C166.738 78.8769 165.699 79.3199 165.359 79.8699ZM159.523 82.8309C157.964 83.8289 157.067 84.8799 157.529 85.1659C157.992 85.4519 159.631 84.6029 161.171 83.2779C164.442 80.4639 163.585 80.2309 159.523 82.8309ZM152.859 85.4009C152.859 87.0189 154.422 87.3869 155.294 85.9749C155.599 85.4819 155.175 84.8219 154.353 84.5059C153.446 84.1579 152.859 84.5089 152.859 85.4009ZM148.866 87.5299C147.469 88.8549 145.709 89.6449 144.866 89.3239C143.733 88.8939 143.643 89.0369 144.502 89.9039C145.364 90.7729 146.337 90.6029 148.458 89.2129C150.005 88.1989 151.403 87.4819 151.565 87.6199C151.99 87.9809 152.064 86.9609 151.684 85.9919C151.505 85.5359 150.237 86.2279 148.866 87.5299ZM159.859 86.9289C159.859 87.5109 160.309 87.7099 160.859 87.3699C161.409 87.0299 161.859 86.5539 161.859 86.3109C161.859 86.0679 161.409 85.8699 160.859 85.8699C160.309 85.8699 159.859 86.3469 159.859 86.9289ZM155.731 88.6199C154.462 90.2389 154.509 90.2599 156.359 88.9029C157.459 88.0959 158.547 87.3089 158.776 87.1529C159.005 86.9969 158.722 86.8699 158.148 86.8699C157.574 86.8699 156.486 87.6569 155.731 88.6199ZM172.601 87.9549C171.634 88.5179 170.397 88.7019 169.851 88.3649C169.305 88.0279 168.859 88.1799 168.859 88.7039C168.859 89.2279 169.534 89.9149 170.359 90.2319C171.184 90.5479 171.859 90.3449 171.859 89.7799C171.859 89.2139 172.309 89.0299 172.859 89.3699C173.409 89.7099 173.859 89.5439 173.859 89.0019C173.859 88.4599 174.646 87.8109 175.609 87.5589C176.835 87.2389 176.91 87.0759 175.859 87.0159C175.034 86.9689 173.568 87.3909 172.601 87.9549ZM83.4013 97.4559C80.9463 102.359 77.9723 108.845 76.7933 111.87C70.3083 128.512 64.8593 139.014 64.8593 134.87C64.8593 134.32 65.1973 133.87 65.6093 133.869C66.0213 133.869 66.4213 132.794 66.4963 131.481C66.6443 128.914 86.6883 87.3649 87.4233 88.1009C87.6663 88.3439 85.8563 92.5539 83.4013 97.4559ZM115.3 89.3379C112.904 91.1509 111.495 91.2909 112.471 89.6199C112.872 88.9329 111.886 89.7199 110.28 91.3699C108.673 93.0199 107.681 94.5149 108.074 94.6919C108.81 95.0229 117.859 89.1319 117.859 88.3219C117.859 87.5859 117.35 87.7879 115.3 89.3379ZM134.731 94.5059C133.542 95.7719 132.235 96.6019 131.827 96.3499C131.419 96.0979 130.509 96.5869 129.805 97.4359C129.1 98.2849 127.586 99.4379 126.441 99.9979C125.296 100.558 126.391 99.0339 128.874 96.6099C131.358 94.1859 134.178 92.2029 135.142 92.2029C136.693 92.2029 136.646 92.4679 134.731 94.5059ZM132.731 94.6199C131.488 96.2059 131.523 96.2409 133.109 94.9979C134.072 94.2429 134.859 93.4549 134.859 93.2479C134.859 92.4249 134.038 92.9539 132.731 94.6199ZM179.884 95.3029C179.234 97.0149 179.315 97.8569 180.159 98.1409C182.126 98.8029 178.883 101.963 174.026 104.116C171.643 105.173 169.486 105.831 169.234 105.578C168.981 105.326 170.164 103.826 171.862 102.245C173.561 100.664 175.866 97.9069 176.986 96.1199C179.386 92.2899 181.227 91.7709 179.884 95.3029ZM185.731 96.6199C184.488 98.2059 184.523 98.2409 186.109 96.9979C187.775 95.6909 188.304 94.8699 187.481 94.8699C187.274 94.8699 186.486 95.6569 185.731 96.6199ZM146.859 99.3699C145.567 100.745 144.073 101.87 143.539 101.87C143.004 101.87 143.781 100.745 145.264 99.3699C146.748 97.9949 148.242 96.8699 148.585 96.8699C148.927 96.8699 148.151 97.9949 146.859 99.3699ZM120.87 101.856C117.682 105.881 114.122 108.911 116.809 105.312C118.873 102.547 123.16 97.8699 123.63 97.8699C123.848 97.8699 122.606 99.6639 120.87 101.856ZM129.859 100.196C129.859 100.375 128.621 101.612 127.109 102.946L124.359 105.37L126.783 102.62C129.049 100.05 129.859 99.4109 129.859 100.196ZM113.656 105.973C109.901 110.646 105.61 113.267 101.615 113.328L98.8703 113.37L101.115 111.603C105.001 108.542 115.307 101.87 116.148 101.87C116.591 101.87 115.47 103.717 113.656 105.973ZM165.769 104.12C164.218 107.128 160.75 110.87 159.513 110.87C158.965 110.87 157.581 111.654 156.438 112.613C153.527 115.054 158.337 109.533 162.859 105.244C167.03 101.288 167.279 101.192 165.769 104.12ZM205.359 102.87C205.019 103.42 205.218 103.87 205.8 103.87C206.382 103.87 206.859 103.42 206.859 102.87C206.859 102.32 206.661 101.87 206.418 101.87C206.175 101.87 205.699 102.32 205.359 102.87ZM108.291 103.761C108.825 104.625 104.726 107.886 103.144 107.855C102.712 107.846 103.034 107.413 103.859 106.891C104.684 106.37 105.415 105.477 105.484 104.906C105.553 104.336 105.665 103.645 105.734 103.37C105.942 102.54 107.703 102.809 108.291 103.761ZM157.859 103.331C157.859 103.585 156.874 104.71 155.67 105.831C154.467 106.952 153.81 107.87 154.211 107.87C155.429 107.87 147.617 115.966 143.459 119.013C138.667 122.524 136.698 122.734 139.83 119.401C141.106 118.043 142.545 117.176 143.029 117.475C143.513 117.774 143.785 117.524 143.634 116.919C143.483 116.314 146.509 112.923 150.359 109.384C157.505 102.814 157.859 102.529 157.859 103.331ZM123.32 106.074C123.086 107.286 121.964 109.199 120.826 110.324C119.102 112.028 118.867 112.078 119.415 110.62C120.453 107.859 118.462 108.581 116.657 111.62C115.759 113.133 113.525 115.213 111.692 116.242C109.232 117.624 110.25 116.248 115.575 110.992C119.543 107.075 123.005 103.87 123.267 103.87C123.53 103.87 123.553 104.862 123.32 106.074ZM137.276 110.311C134.637 113.369 132.069 115.87 131.569 115.87C131.07 115.87 133.014 113.154 135.89 109.834C138.767 106.514 141.335 104.012 141.598 104.275C141.86 104.538 139.916 107.254 137.276 110.311ZM134.859 105.248C134.859 105.455 134.072 106.243 133.109 106.998C131.523 108.241 131.488 108.206 132.731 106.62C134.038 104.954 134.859 104.425 134.859 105.248ZM101.4 107.803C101.038 108.39 100.262 108.87 99.6783 108.87C99.0143 108.87 99.0903 108.296 99.8793 107.346C101.251 105.693 102.476 106.062 101.4 107.803ZM120.731 107.62C119.488 109.206 119.523 109.241 121.109 107.998C122.072 107.243 122.859 106.455 122.859 106.248C122.859 105.425 122.038 105.954 120.731 107.62ZM183.4 107.803C183.038 108.39 182.262 108.87 181.678 108.87C181.014 108.87 181.09 108.296 181.879 107.346C183.251 105.693 184.476 106.062 183.4 107.803ZM25.3873 114.148C23.6103 118.402 21.3253 120.403 22.8633 116.36C24.3533 112.442 25.9663 109.643 26.4533 110.131C26.6913 110.368 26.2113 112.176 25.3873 114.148ZM188.859 110.455C188.859 110.776 184.412 115.839 178.977 121.705C153.34 149.372 143.709 161.501 131.572 181.403C126.91 189.047 122.133 195.94 120.955 196.722C119.301 197.82 119.712 196.693 122.764 191.757C124.936 188.244 128.614 182.22 130.937 178.37C137.051 168.24 149.138 150.397 154.985 142.87C161.922 133.94 182.876 111.816 185.344 110.814C187.841 109.801 188.859 109.697 188.859 110.455ZM177.43 113.441C176.371 114.216 175.248 114.592 174.934 114.278C174.619 113.964 175.229 113.073 176.288 112.299C177.347 111.524 178.47 111.148 178.784 111.462C179.099 111.776 178.489 112.667 177.43 113.441ZM126.514 114.699C124.083 117.385 124.498 118.486 127.109 116.275L129.359 114.37L127.37 116.87C126.276 118.245 125.304 119.516 125.211 119.695C125.118 119.874 124.336 120.124 123.472 120.251C122.609 120.377 120.68 121.581 119.187 122.925C117.694 124.27 118.877 122.558 121.816 119.12C124.754 115.683 127.386 112.87 127.664 112.87C127.942 112.87 127.424 113.693 126.514 114.699ZM102.254 115.04C101.763 115.834 102.083 115.998 103.247 115.551C104.303 115.146 104.718 115.289 104.327 115.922C103.977 116.488 102.892 116.698 101.916 116.388C100.935 116.077 99.5763 116.506 98.8783 117.347C98.1833 118.185 97.1943 118.87 96.6813 118.87C95.5653 118.87 101.002 113.947 102.168 113.902C102.613 113.884 102.652 114.396 102.254 115.04ZM170.785 116.459C170.141 117.235 169.107 117.876 168.487 117.884C167.866 117.892 166.081 120.255 164.52 123.134L161.681 128.37L167.723 121.87C171.046 118.295 173.786 115.841 173.812 116.417C173.838 116.993 172.059 119.222 169.859 121.37C167.659 123.518 165.859 125.699 165.859 126.215C165.859 126.732 163.786 129.581 161.253 132.546C157.851 136.528 156.321 137.669 155.404 136.908C154.515 136.169 153.656 136.436 152.377 137.85C151.395 138.935 150.271 139.624 149.878 139.382C149.486 139.14 147.859 140.388 146.262 142.156L143.359 145.37L146.609 142.433C148.396 140.818 149.859 139.883 149.859 140.357C149.859 140.831 150.937 140.206 152.254 138.969C156.481 134.997 156.325 138.641 152.069 143.257C143.084 153.006 129.32 173.487 116.376 196.37C113.548 201.37 106.599 208.586 106.088 207.054C105.698 205.889 114.1 189.003 120.608 177.87C126.979 166.971 139.546 148.181 141.112 147.214C141.776 146.803 141.868 147.047 141.359 147.87C140.82 148.743 140.94 148.938 141.721 148.455C142.365 148.057 142.617 147.287 142.281 146.743C141.945 146.2 144.318 142.743 147.554 139.063C150.789 135.382 154.464 131.02 155.72 129.37C160.091 123.626 170.084 113.891 171.017 114.467C171.575 114.812 171.481 115.621 170.785 116.459ZM114.859 117.215C114.859 117.405 113.895 118.417 112.717 119.465C110.583 121.363 110.581 121.362 111.958 119.12C113.133 117.208 114.859 116.074 114.859 117.215ZM133.053 122.641C130.471 125.265 127.459 128.052 126.359 128.835C125.259 129.618 127.045 127.471 130.328 124.064C133.61 120.657 136.623 117.87 137.021 117.87C137.42 117.87 135.634 120.017 133.053 122.641ZM127.859 120.215C127.859 120.405 126.847 121.417 125.609 122.465L123.359 124.37L125.264 122.12C127.054 120.006 127.859 119.415 127.859 120.215ZM98.2213 123.37C97.9043 124.195 97.1883 124.87 96.6303 124.87C96.0443 124.87 96.1413 124.235 96.8593 123.37C97.5443 122.545 98.2603 121.87 98.4503 121.87C98.6403 121.87 98.5373 122.545 98.2213 123.37ZM49.9813 129.545C48.8023 131.572 48.5183 130.923 49.4833 128.409C49.8253 127.515 50.3173 126.994 50.5743 127.252C50.8323 127.509 50.5653 128.541 49.9813 129.545ZM103.859 129.87C102.684 131.52 101.498 132.87 101.223 132.87C100.948 132.87 101.684 131.52 102.859 129.87C104.034 128.22 105.22 126.87 105.495 126.87C105.77 126.87 105.034 128.22 103.859 129.87ZM176.859 129.215C176.859 129.405 175.847 130.417 174.609 131.465L172.359 133.37L174.264 131.12C176.054 129.006 176.859 128.415 176.859 129.215ZM38.9813 132.545C37.8023 134.572 37.5183 133.923 38.4833 131.409C38.8253 130.515 39.3173 129.994 39.5743 130.252C39.8323 130.509 39.5653 131.541 38.9813 132.545ZM118.813 131.956C118.199 133.103 117.444 133.789 117.135 133.48C116.827 133.171 117.143 132.232 117.839 131.394C119.637 129.228 120.123 129.508 118.813 131.956ZM133.859 130.248C133.859 130.455 133.072 131.243 132.109 131.998C130.523 133.241 130.488 133.206 131.731 131.62C133.038 129.954 133.859 129.425 133.859 130.248ZM39.2463 143.257C36.6133 149.057 34.3003 153.645 34.1073 153.451C33.9143 153.258 35.9073 148.351 38.5363 142.547C41.1663 136.744 43.4793 132.156 43.6763 132.353C43.8723 132.55 41.8793 137.457 39.2463 143.257ZM151.264 136.12L149.359 138.37L151.609 136.465C153.723 134.675 154.314 133.87 153.514 133.87C153.324 133.87 152.312 134.882 151.264 136.12ZM36.9813 137.545C35.8023 139.572 35.5183 138.923 36.4833 136.409C36.8253 135.515 37.3173 134.994 37.5743 135.252C37.8323 135.509 37.5653 136.541 36.9813 137.545ZM64.0423 141.087C63.3253 141.804 62.8593 141.863 62.8593 141.237C62.8593 139.902 64.0423 138.719 64.7093 139.387C64.9933 139.671 64.6933 140.436 64.0423 141.087ZM119.859 139.248C119.859 139.455 119.174 140.194 118.336 140.889C117.063 141.946 116.916 141.884 117.443 140.511C117.981 139.11 119.859 138.127 119.859 139.248ZM124.701 141.87C122.462 144.899 121.139 145.928 122.452 143.62C123.383 141.984 126.065 138.87 126.544 138.87C126.75 138.87 125.921 140.22 124.701 141.87ZM10.4993 149.51C8.48234 154.276 6.99334 158.337 7.19134 158.535C7.38934 158.733 9.20234 154.996 11.2193 150.23C13.2363 145.464 14.7253 141.403 14.5273 141.205C14.3293 141.007 12.5163 144.744 10.4993 149.51ZM232.859 144.37C230.384 145.695 228.809 146.78 229.359 146.78C229.909 146.78 232.384 145.695 234.859 144.37C237.334 143.045 238.909 141.96 238.359 141.96C237.809 141.96 235.334 143.045 232.859 144.37ZM238.859 145.87C231.673 149.666 233.009 149.684 241.049 145.9C244.519 144.266 246.684 142.937 245.859 142.947C245.034 142.957 241.884 144.272 238.859 145.87ZM210.859 145.87C209.958 146.452 209.834 146.845 210.55 146.855C211.205 146.863 212.019 146.42 212.359 145.87C213.126 144.628 212.78 144.628 210.859 145.87ZM111.809 151.12C110.719 152.907 108.688 155.72 107.295 157.37L104.764 160.37L105.972 157.62C106.636 156.108 107.558 154.87 108.02 154.87C108.481 154.87 108.859 154.392 108.859 153.808C108.859 152.488 112.102 147.944 113.075 147.901C113.469 147.884 112.899 149.333 111.809 151.12ZM230.859 149.87C229.958 150.452 229.834 150.845 230.55 150.855C231.205 150.863 232.019 150.42 232.359 149.87C233.126 148.628 232.78 148.628 230.859 149.87ZM115.359 151.87C114.364 152.97 113.887 153.87 114.299 153.87C114.712 153.87 113.653 156.345 111.946 159.37C107.365 167.486 108.98 166.053 114.199 157.37C118.572 150.094 119.06 147.78 115.359 151.87ZM201.359 159.746C185.803 167.801 160.591 181.896 158.973 183.441C158.376 184.01 164.139 183.128 166.109 182.349C167.139 181.941 167.859 182.112 167.859 182.763C167.859 183.372 168.364 183.87 168.981 183.87C169.742 183.87 169.691 183.372 168.821 182.324C168.116 181.474 166.823 181.026 165.949 181.327C164.9 181.688 165.03 181.356 166.33 180.35C167.415 179.512 168.9 179.056 169.632 179.336C170.364 179.617 170.72 179.455 170.424 178.975C169.42 177.35 208.125 156.374 210.468 157.273C211.432 157.644 211.709 157.436 211.247 156.689C210.762 155.904 211.094 155.746 212.277 156.2C213.237 156.569 214.297 156.87 214.632 156.87C214.967 156.87 214.368 157.543 213.3 158.365C212.121 159.273 213.322 159.031 216.359 157.748C219.109 156.586 221.809 155.183 222.359 154.63C222.909 154.078 222.311 154.165 221.031 154.825C219.75 155.484 218.04 155.77 217.229 155.458C216.401 155.141 216.023 155.326 216.366 155.881C217.121 157.104 215.835 157.141 213.956 155.951C212.904 155.285 213.779 154.426 217.456 152.513C220.153 151.111 221.909 149.95 221.359 149.935C220.809 149.92 211.809 154.334 201.359 159.746ZM258.609 151.442C254.871 153.47 255.098 154.315 258.859 152.37C260.509 151.517 261.859 150.605 261.859 150.344C261.859 149.701 261.752 149.737 258.609 151.442ZM138.613 154.62L136.949 158.37L139.399 155.37C141.924 152.278 142.446 150.87 141.067 150.87C140.632 150.87 139.527 152.558 138.613 154.62ZM224.859 152.87C223.958 153.452 223.834 153.845 224.55 153.855C225.205 153.863 226.019 153.42 226.359 152.87C227.126 151.628 226.78 151.628 224.859 152.87ZM31.9753 159.526C30.8603 161.64 29.9283 163.048 29.9033 162.654C29.8323 161.504 33.1783 154.856 33.6113 155.288C33.8273 155.504 33.0913 157.411 31.9753 159.526ZM244.609 158.433C240.896 160.339 237.859 162.122 237.859 162.396C237.859 162.843 251.759 156.186 252.776 155.253C254.143 153.996 250.453 155.434 244.609 158.433ZM260.019 158.031C257.632 159.127 255.901 160.246 256.172 160.517C256.706 161.05 264.859 157.139 264.859 156.35C264.859 155.765 265.252 155.628 260.019 158.031ZM191.609 161.938C189.547 163.027 187.859 164.141 187.859 164.414C187.859 164.687 189.659 163.992 191.859 162.87C194.059 161.748 195.859 160.613 195.859 160.35C195.859 159.696 195.852 159.698 191.609 161.938ZM204.574 162.454C201.942 163.824 199.285 164.633 198.669 164.253C198.028 163.857 197.827 164.01 198.199 164.611C198.99 165.891 196.131 167.135 194.519 166.213C193.881 165.848 193.69 165.915 194.093 166.361C194.497 166.807 194.047 167.797 193.093 168.56C192.14 169.323 195.521 167.9 200.609 165.398C205.697 162.897 209.859 160.629 209.859 160.36C209.859 159.691 209.958 159.651 204.574 162.454ZM54.8393 162.394C54.1433 163.232 53.3143 163.658 52.9953 163.34C52.6773 163.022 53.0793 162.343 53.8883 161.831C56.0053 160.492 56.2823 160.656 54.8393 162.394ZM242.859 162.37C241.484 163.156 240.835 163.815 241.418 163.835C242 163.854 243.35 163.209 244.418 162.402C246.887 160.534 246.098 160.518 242.859 162.37ZM247.859 163.37C246.484 164.156 245.809 164.799 246.359 164.799C246.909 164.799 248.484 164.156 249.859 163.37C251.234 162.584 251.909 161.941 251.359 161.941C250.809 161.941 249.234 162.584 247.859 163.37ZM23.4833 164.409C22.5183 166.923 22.8023 167.572 23.9813 165.545C24.5653 164.541 24.8323 163.509 24.5743 163.252C24.3173 162.994 23.8253 163.515 23.4833 164.409ZM224.609 168.433C220.896 170.339 217.859 172.122 217.859 172.396C217.859 172.843 231.759 166.186 232.776 165.253C234.143 163.996 230.453 165.434 224.609 168.433ZM231.859 167.87C228.834 169.468 226.711 170.797 227.142 170.823C228.205 170.887 237.859 165.96 237.859 165.353C237.859 164.685 237.998 164.627 231.859 167.87ZM106.859 167.87C106.27 168.97 106.014 169.87 106.289 169.87C106.564 169.87 107.27 168.97 107.859 167.87C108.448 166.77 108.704 165.87 108.429 165.87C108.154 165.87 107.448 166.77 106.859 167.87ZM52.9903 168.212C52.3783 168.95 52.1313 169.808 52.4413 170.119C53.3443 171.022 50.0993 176.564 48.2533 177.272C45.5453 178.312 45.5543 177.255 48.2723 175.117C49.6583 174.027 50.4823 172.826 50.1043 172.448C49.7263 172.07 50.0793 171.343 50.8883 170.831C52.0613 170.089 52.0813 169.898 50.9873 169.885C49.8803 169.873 49.8553 169.579 50.8593 168.37C51.5443 167.545 52.5543 166.87 53.1043 166.87C53.7143 166.87 53.6703 167.393 52.9903 168.212ZM255.859 168.87C254.958 169.452 254.834 169.845 255.55 169.855C256.205 169.863 257.019 169.42 257.359 168.87C258.126 167.628 257.78 167.628 255.859 168.87ZM20.4833 171.409C19.5183 173.923 19.8023 174.572 20.9813 172.545C21.5653 171.541 21.8323 170.509 21.5743 170.252C21.3173 169.994 20.8253 170.515 20.4833 171.409ZM175.601 170.955C174.634 171.518 173.284 171.657 172.601 171.264C171.918 170.871 171.69 170.915 172.093 171.361C172.497 171.807 172.047 172.787 171.093 173.537C169.602 174.711 169.78 174.734 172.359 173.702C174.009 173.041 176.018 171.909 176.823 171.185C178.558 169.627 178.046 169.531 175.601 170.955ZM184.609 172.938C182.547 174.027 180.859 175.141 180.859 175.414C180.859 175.687 182.659 174.992 184.859 173.87C187.059 172.748 188.859 171.613 188.859 171.35C188.859 170.696 188.852 170.698 184.609 172.938ZM214.366 173.859C214.016 174.425 214.417 174.593 215.307 174.252C217.039 173.587 217.356 172.87 215.918 172.87C215.4 172.87 214.702 173.315 214.366 173.859ZM174.359 178.87C172.709 179.963 171.809 180.85 172.359 180.841C173.362 180.825 178.799 176.928 177.859 176.899C177.584 176.89 176.009 177.777 174.359 178.87ZM198.609 181.938C196.547 183.027 194.859 184.141 194.859 184.414C194.859 184.687 196.659 183.992 198.859 182.87C201.059 181.748 202.859 180.613 202.859 180.35C202.859 179.696 202.852 179.698 198.609 181.938ZM189.609 186.938C187.547 188.027 185.859 189.141 185.859 189.414C185.859 189.687 187.659 188.992 189.859 187.87C192.059 186.748 193.859 185.613 193.859 185.35C193.859 184.696 193.852 184.698 189.609 186.938ZM139.201 188.8C138.18 190.411 135.561 192.94 133.379 194.421C131.198 195.901 130.018 196.383 130.758 195.491C132.306 193.626 130.861 193.268 129.059 195.07C128.399 195.73 127.859 195.999 127.859 195.668C127.859 195.069 139.863 185.87 140.645 185.87C140.871 185.87 140.221 187.188 139.201 188.8ZM154.722 186.673C155.683 187.346 155.75 187.789 154.947 188.174C154.211 188.527 154.198 188.649 154.909 188.52C156.446 188.241 156.286 186.493 154.684 186.069C153.638 185.792 153.646 185.919 154.722 186.673ZM201.859 187.817C199.935 188.841 198.022 189.471 197.609 189.216C197.197 188.961 196.859 189.255 196.859 189.87C196.859 190.485 196.339 190.667 195.704 190.275C194.936 189.8 194.824 190.004 195.369 190.885C195.968 191.855 195.727 192.034 194.471 191.551C193.315 191.108 192.989 191.271 193.471 192.051C193.946 192.821 193.639 192.999 192.555 192.584C190.908 191.951 189.42 193.098 190.494 194.172C190.96 194.638 205.213 187.71 206.776 186.257C207.874 185.236 204.986 186.153 201.859 187.817ZM163.609 194.416C156.597 198.55 150.859 202.369 150.859 202.901C150.859 204.455 151.832 204.059 155.867 200.863C157.955 199.21 163.847 195.385 168.96 192.363C174.073 189.342 177.829 186.877 177.308 186.885C176.786 186.893 170.621 190.282 163.609 194.416ZM49.8593 188.87C49.0343 189.403 48.8093 189.839 49.3593 189.839C49.9093 189.839 51.0343 189.403 51.8593 188.87C52.6843 188.337 52.9093 187.901 52.3593 187.901C51.8093 187.901 50.6843 188.337 49.8593 188.87ZM179.609 192.442C175.871 194.47 176.098 195.315 179.859 193.37C181.509 192.517 182.859 191.605 182.859 191.344C182.859 190.701 182.752 190.737 179.609 192.442ZM101.477 195.532C100.631 197.093 99.9213 198.054 99.8993 197.667C99.8313 196.478 102.158 191.835 102.6 192.277C102.828 192.506 102.323 193.97 101.477 195.532ZM80.0033 197.62C78.9123 200.17 78.9373 200.229 80.3433 198.429C81.1773 197.361 81.8593 196.124 81.8593 195.679C81.8593 194.159 81.1813 194.869 80.0033 197.62ZM141.859 195.255C141.859 195.467 140.621 196.393 139.109 197.314L136.359 198.989L138.72 196.929C141.024 194.92 141.859 194.474 141.859 195.255ZM171.3 197.425C169.436 198.919 169.448 198.937 171.609 197.89C172.847 197.29 173.859 196.59 173.859 196.335C173.859 195.57 173.34 195.791 171.3 197.425ZM182.588 196.962C181.614 197.529 181.125 198.492 181.502 199.101C181.949 199.825 181.592 199.981 180.471 199.551C179.315 199.108 178.989 199.271 179.471 200.051C179.93 200.793 179.661 201.008 178.723 200.648C176.76 199.895 172.571 202.227 172.276 204.237C172.086 205.529 172.963 205.319 176.699 203.176C183.087 199.513 184.319 198.569 184.609 197.12C184.905 195.639 184.866 195.635 182.588 196.962ZM132.553 199.402C131.01 200.759 130.323 201.87 131.026 201.87C131.729 201.87 131.266 202.597 129.997 203.486C128.417 204.592 127.366 204.777 126.662 204.073C125.958 203.369 126.978 202.072 129.897 199.958C134.994 196.265 136.469 195.956 132.553 199.402ZM112.318 199.937C111.955 200.523 111.873 201.218 112.135 201.48C112.397 201.742 112.878 201.262 113.204 200.413C113.88 198.651 113.304 198.341 112.318 199.937ZM127.359 202.87C127.019 203.42 127.191 203.87 127.741 203.87C128.291 203.87 129.019 203.42 129.359 202.87C129.699 202.32 129.527 201.87 128.977 201.87C128.427 201.87 127.699 202.32 127.359 202.87ZM175.359 202.87C175.019 203.42 174.205 203.863 173.55 203.855C172.834 203.845 172.958 203.452 173.859 202.87C175.78 201.628 176.126 201.628 175.359 202.87ZM76.4593 204.47C76.1033 205.397 76.0373 206.381 76.3123 206.656C76.5873 206.931 77.1033 206.397 77.4593 205.47C77.8153 204.543 77.8813 203.559 77.6063 203.284C77.3313 203.009 76.8153 203.543 76.4593 204.47ZM169.782 204.12C169.243 205.884 169.149 207.913 169.63 207.433C170.359 206.703 170.869 203.87 170.271 203.87C170.044 203.87 169.825 203.983 169.782 204.12ZM165.483 207.156C163.824 208.369 163.832 208.441 165.625 208.441C166.67 208.441 167.526 207.863 167.526 207.156C167.526 206.449 167.462 205.87 167.383 205.87C167.305 205.87 166.45 206.449 165.483 207.156ZM74.3183 208.937C73.9553 209.523 73.8733 210.218 74.1353 210.48C74.3973 210.742 74.8783 210.262 75.2043 209.413C75.8803 207.651 75.3043 207.341 74.3183 208.937ZM175.3 209.425C173.436 210.919 173.448 210.937 175.609 209.89C176.847 209.29 177.859 208.59 177.859 208.335C177.859 207.57 177.34 207.791 175.3 209.425ZM106.981 211.069C106.534 212.278 105.604 213.455 104.914 213.685C104.109 213.953 104.274 213.166 105.375 211.486C107.467 208.293 108.066 208.137 106.981 211.069ZM127.859 209.785C127.859 210.918 117.944 218.288 117.294 217.639C116.916 217.26 126.713 208.948 127.609 208.887C127.746 208.878 127.859 209.282 127.859 209.785ZM156.425 212.821C153.162 214.991 150.392 217.447 150.269 218.28C150.074 219.61 150.337 219.603 152.445 218.222C153.763 217.358 154.547 216.174 154.186 215.591C153.789 214.948 154.13 214.76 155.052 215.114C156.939 215.838 162.143 212.545 162.453 210.43C162.579 209.572 162.609 208.871 162.521 208.873C162.432 208.875 159.689 210.652 156.425 212.821ZM160.3 212.338C159.233 213.146 157.935 213.821 157.418 213.838C156.9 213.856 157.35 213.209 158.418 212.402C159.485 211.594 160.783 210.919 161.3 210.902C161.818 210.884 161.368 211.531 160.3 212.338ZM65.4233 213.577C64.8813 215.002 64.9953 215.117 65.9833 214.137C66.6673 213.458 66.9743 212.651 66.6663 212.344C66.3583 212.036 65.7993 212.591 65.4233 213.577ZM70.3593 216.87C68.9103 219.729 67.9233 222.267 68.1663 222.51C68.4083 222.753 69.8173 220.637 71.2973 217.808C72.7763 214.978 73.7633 212.44 73.4903 212.167C73.2173 211.894 71.8083 214.011 70.3593 216.87ZM91.8593 215.679C91.8593 216.124 91.1773 217.361 90.3433 218.429C88.9373 220.229 88.9123 220.17 90.0033 217.62C91.1813 214.869 91.8593 214.159 91.8593 215.679ZM100.859 222.37C100.174 223.195 99.1073 223.856 98.4873 223.838C97.8663 223.821 98.2333 223.146 99.3003 222.338C101.794 220.452 102.44 220.465 100.859 222.37ZM63.8103 229.967C62.6603 232.22 61.8913 234.235 62.1013 234.445C62.3103 234.655 63.4613 232.811 64.6573 230.348C67.3833 224.739 66.6463 224.407 63.8103 229.967ZM94.7193 235.722C93.3143 237.972 89.1983 240.808 90.4063 238.694C91.7213 236.394 94.1363 233.87 95.0223 233.87C95.4923 233.87 95.3563 234.703 94.7193 235.722ZM114.814 236.425C114.104 237.28 112.586 238.445 111.441 239.013C110.193 239.633 110.561 239.025 112.359 237.495C115.801 234.566 116.671 234.186 114.814 236.425ZM75.5423 247.058C75.2233 247.855 74.9863 247.618 74.9383 246.453C74.8953 245.399 75.1313 244.809 75.4633 245.141C75.7953 245.473 75.8313 246.336 75.5423 247.058ZM88.8593 247.248C88.8593 247.455 88.0723 248.243 87.1093 248.998C85.5233 250.241 85.4883 250.206 86.7313 248.62C88.0383 246.954 88.8593 246.425 88.8593 247.248ZM84.6273 259.971C83.7253 261.677 82.3653 262.449 79.9193 262.643C76.0223 262.952 75.9933 263.02 81.2653 259.475C85.7263 256.474 86.4213 256.577 84.6273 259.971ZM112.359 257.87C112.019 258.42 111.291 258.87 110.741 258.87C110.191 258.87 110.019 258.42 110.359 257.87C110.699 257.32 111.427 256.87 111.977 256.87C112.527 256.87 112.699 257.32 112.359 257.87ZM90.8593 261.87C90.8593 262.42 90.3823 262.87 89.8003 262.87C89.2183 262.87 89.0193 262.42 89.3593 261.87C89.6993 261.32 90.1753 260.87 90.4183 260.87C90.6613 260.87 90.8593 261.32 90.8593 261.87Z" fill="#7287F9"/>
</svg>
