<svg width="90px" height="90px" viewBox="0 0 275 275" fill="none" xmlns="http://www.w3.org/2000/svg">
<g clip-path="url(#clip0_209_7)">
<path d="M251.087 263.043H35.8698C22.6633 263.043 11.9566 252.337 11.9566 239.13V23.9132C11.9566 17.3094 17.3094 11.9566 23.9132 11.9566H251.087C257.691 11.9566 263.044 17.3094 263.044 23.9132V251.087C263.043 257.691 257.691 263.043 251.087 263.043Z" fill="#EDEDED"/>
<path d="M273.687 261.73L261.73 273.687C260.854 274.562 259.707 275 258.559 275C257.412 275 256.264 274.562 255.388 273.687C253.637 271.936 253.637 269.097 255.388 267.346L259.691 263.043H28.3972C19.3324 263.043 11.9568 255.668 11.9568 246.603V15.3082L7.65514 19.6109C5.90363 21.3619 3.065 21.3619 1.31403 19.6109C-0.436951 17.86 -0.436951 15.0208 1.31403 13.2704L13.2701 1.31323C15.0216 -0.437744 17.8602 -0.437744 19.6112 1.31323L31.5678 13.2698C33.3188 15.0208 33.3188 17.86 31.5678 19.6104C30.6918 20.4854 29.544 20.9236 28.3967 20.9236C27.2494 20.9236 26.1016 20.4859 25.2256 19.6104L20.9239 15.3076V246.603C20.9239 250.724 24.276 254.076 28.3967 254.076H259.692L255.389 249.773C253.638 248.022 253.638 245.183 255.389 243.432C257.14 241.681 259.979 241.681 261.73 243.432L273.686 255.389C275.438 257.14 275.438 259.98 273.687 261.73Z" fill="#233AAF"/>
<path d="M185.326 221.196V11.9566C185.326 5.35283 190.679 0 197.282 0H221.196C227.799 0 233.152 5.35283 233.152 11.9566V221.196C233.152 227.799 227.799 233.152 221.196 233.152H197.282C190.679 233.152 185.326 227.799 185.326 221.196Z" fill="#233AAF"/>
<path d="M113.587 221.196V83.6956C113.587 77.0918 118.94 71.739 125.543 71.739H149.457C156.06 71.739 161.413 77.0918 161.413 83.6956V221.196C161.413 227.799 156.06 233.152 149.457 233.152H125.543C118.94 233.152 113.587 227.799 113.587 221.196Z" fill="#455DDB"/>
<path d="M77.7175 233.152H53.8044C47.2006 233.152 41.8478 227.799 41.8478 221.196V149.457C41.8478 142.853 47.2006 137.5 53.8044 137.5H77.7175C84.3213 137.5 89.6741 142.853 89.6741 149.457V221.196C89.6741 227.799 84.3208 233.152 77.7175 233.152Z" fill="#7287F9"/>
</g>
<defs>
<clipPath id="clip0_209_7">
<rect width="275" height="275" fill="white"/>
</clipPath>
</defs>
</svg>
