<svg width="90px" height="90px" viewBox="0 0 219 219" fill="none" xmlns="http://www.w3.org/2000/svg">
<g clip-path="url(#clip0_209_2)">
<path d="M199.956 209.478H28.565C18.0478 209.478 9.52136 200.952 9.52136 190.435V19.0432C9.52136 13.7842 13.7842 9.52136 19.0432 9.52136H199.956C205.215 9.52136 209.478 13.7842 209.478 19.0432V199.956C209.478 205.215 205.215 209.478 199.956 209.478Z" fill="white"/>
<path d="M217.954 208.432L208.432 217.954C207.734 218.651 206.82 219 205.907 219C204.993 219 204.079 218.651 203.381 217.954C201.987 216.559 201.987 214.298 203.381 212.904L206.808 209.478H22.6139C15.395 209.478 9.52137 203.605 9.52137 196.385V12.1904L6.09564 15.617C4.7008 17.0114 2.44022 17.0114 1.04581 15.617C-0.348603 14.2226 -0.348603 11.9616 1.04581 10.5676L10.5676 1.04581C11.9624 -0.348603 14.223 -0.348603 15.6174 1.04581L25.1392 10.5676C26.5336 11.962 26.5336 14.223 25.1392 15.617C24.4416 16.3138 23.5275 16.6628 22.6139 16.6628C21.7002 16.6628 20.7862 16.3142 20.0885 15.617L16.6628 12.1904V196.386C16.6628 199.667 19.3323 202.337 22.6139 202.337H206.809L203.382 198.91C201.988 197.516 201.988 195.255 203.382 193.861C204.777 192.466 207.038 192.466 208.432 193.861L217.954 203.383C219.348 204.777 219.348 207.038 217.954 208.432Z" fill="#233AAF"/>
<path d="M219 27.375V40.8405C219 42.8123 217.401 44.4112 215.429 44.4112C213.457 44.4112 211.859 42.8123 211.859 40.8405V36.5987L135.896 116.716C135.222 117.428 134.285 117.831 133.304 117.831H101.525L31.1703 192.877C30.4671 193.626 29.5167 194.005 28.5646 194.005C27.6894 194.005 26.8121 193.685 26.1231 193.04C24.6842 191.691 24.6115 189.431 25.9601 187.993L97.3733 111.819C98.0483 111.099 98.991 110.69 99.9787 110.69H131.769L207.377 30.9457H201.964C199.992 30.9457 198.393 29.3468 198.393 27.375C198.393 25.4031 199.992 23.8043 201.964 23.8043H215.429C217.401 23.8043 219 25.4027 219 27.375Z" fill="#233AAF"/>
<path d="M98.7878 61.891C98.7878 63.8629 97.1889 65.4618 95.2171 65.4618H93.3128C91.3409 65.4618 89.7421 63.8629 89.7421 61.891C89.7421 59.9192 91.3409 58.3203 93.3128 58.3203H95.2171C97.1893 58.3207 98.7878 59.9192 98.7878 61.891ZM111.404 58.3207H109.5C107.528 58.3207 105.929 59.9196 105.929 61.8915C105.929 63.8633 107.528 65.4622 109.5 65.4622H111.404C113.376 65.4622 114.975 63.8633 114.975 61.8915C114.975 59.9192 113.376 58.3207 111.404 58.3207ZM30.4696 58.3207H28.5654C26.5935 58.3207 24.9946 59.9196 24.9946 61.8915C24.9946 63.8633 26.5935 65.4622 28.5654 65.4622H30.4696C32.4415 65.4622 34.0404 63.8633 34.0404 61.8915C34.0399 59.9192 32.4415 58.3207 30.4696 58.3207ZM143.778 58.3207H141.874C139.902 58.3207 138.303 59.9196 138.303 61.8915C138.303 63.8633 139.902 65.4622 141.874 65.4622H143.778C145.75 65.4622 147.349 63.8633 147.349 61.8915C147.349 59.9192 145.75 58.3207 143.778 58.3207ZM127.591 58.3207H125.687C123.715 58.3207 122.116 59.9196 122.116 61.8915C122.116 63.8633 123.715 65.4622 125.687 65.4622H127.591C129.563 65.4622 131.162 63.8633 131.162 61.8915C131.162 59.9192 129.563 58.3207 127.591 58.3207ZM79.0303 58.3207H77.126C75.1542 58.3207 73.5553 59.9196 73.5553 61.8915C73.5553 63.8633 75.1542 65.4622 77.126 65.4622H79.0303C81.0022 65.4622 82.601 63.8633 82.601 61.8915C82.601 59.9192 81.0022 58.3207 79.0303 58.3207ZM46.6564 58.3207H44.7521C42.7803 58.3207 41.1814 59.9196 41.1814 61.8915C41.1814 63.8633 42.7803 65.4622 44.7521 65.4622H46.6564C48.6282 65.4622 50.2271 63.8633 50.2271 61.8915C50.2271 59.9192 48.6282 58.3207 46.6564 58.3207ZM62.8431 58.3207H60.9389C58.967 58.3207 57.3681 59.9196 57.3681 61.8915C57.3681 63.8633 58.967 65.4622 60.9389 65.4622H62.8431C64.815 65.4622 66.4139 63.8633 66.4139 61.8915C66.4139 59.9192 64.8154 58.3207 62.8431 58.3207ZM190.435 185.912C188.463 185.912 186.864 187.511 186.864 189.482V191.387C186.864 193.359 188.463 194.957 190.435 194.957C192.406 194.957 194.005 193.359 194.005 191.387V189.482C194.005 187.511 192.406 185.912 190.435 185.912ZM190.435 121.164C188.463 121.164 186.864 122.763 186.864 124.735V126.639C186.864 128.611 188.463 130.21 190.435 130.21C192.406 130.21 194.005 128.611 194.005 126.639V124.735C194.005 122.763 192.406 121.164 190.435 121.164ZM190.435 104.977C188.463 104.977 186.864 106.576 186.864 108.548V110.452C186.864 112.424 188.463 114.023 190.435 114.023C192.406 114.023 194.005 112.424 194.005 110.452V108.548C194.005 106.576 192.406 104.977 190.435 104.977ZM190.435 88.79C188.463 88.79 186.864 90.3888 186.864 92.3607V94.265C186.864 96.2368 188.463 97.8357 190.435 97.8357C192.406 97.8357 194.005 96.2368 194.005 94.265V92.3607C194.005 90.3888 192.406 88.79 190.435 88.79ZM190.435 72.6032C188.463 72.6032 186.864 74.2021 186.864 76.1739V78.0782C186.864 80.0501 188.463 81.6489 190.435 81.6489C192.406 81.6489 194.005 80.0501 194.005 78.0782V76.1739C194.005 74.2017 192.406 72.6032 190.435 72.6032ZM190.435 153.538C188.463 153.538 186.864 155.137 186.864 157.109V159.013C186.864 160.985 188.463 162.584 190.435 162.584C192.406 162.584 194.005 160.985 194.005 159.013V157.109C194.005 155.137 192.406 153.538 190.435 153.538ZM190.435 169.725C188.463 169.725 186.864 171.324 186.864 173.296V175.2C186.864 177.172 188.463 178.771 190.435 178.771C192.406 178.771 194.005 177.172 194.005 175.2V173.296C194.005 171.323 192.406 169.725 190.435 169.725ZM159.965 58.3207H158.061C156.089 58.3207 154.49 59.9196 154.49 61.8915C154.49 63.8633 156.089 65.4622 158.061 65.4622H159.965C161.937 65.4622 163.536 63.8633 163.536 61.8915C163.536 59.9192 161.937 58.3207 159.965 58.3207ZM190.435 137.351C188.463 137.351 186.864 138.95 186.864 140.922V142.826C186.864 144.798 188.463 146.397 190.435 146.397C192.406 146.397 194.005 144.798 194.005 142.826V140.922C194.005 138.95 192.406 137.351 190.435 137.351Z" fill="#233AAF"/>
</g>
<defs>
<clipPath id="clip0_209_2">
<rect width="219" height="219" fill="white"/>
</clipPath>
</defs>
</svg>
