<svg width="348" height="77" viewBox="0 0 348 77" fill="none" xmlns="http://www.w3.org/2000/svg">
<path d="M21.512 76.936C17.544 76.936 14.0027 76.36 10.888 75.208C7.77333 74.056 5.32 72.3707 3.528 70.152C1.736 67.976 0.84 65.3307 0.84 62.216C0.84 61.0213 0.989333 59.7627 1.288 58.44C1.544 57.16 1.97067 55.7947 2.568 54.344C3.16533 52.936 4.06133 51.6133 5.256 50.376C6.45067 49.1387 7.66667 48.136 8.904 47.368C10.1413 46.6 11.1013 46.216 11.784 46.216H11.976C12.36 46.216 12.552 46.28 12.552 46.408C12.552 46.4933 12.4667 46.6 12.296 46.728C12.1253 46.856 11.9333 46.9627 11.72 47.048C10.9947 47.3467 10.0773 47.9867 8.968 48.968C7.85867 49.9067 6.792 51.1013 5.768 52.552C4.78667 53.96 4.04 55.5173 3.528 57.224C3.144 58.632 2.952 59.976 2.952 61.256C2.952 63.56 3.528 65.5653 4.68 67.272C5.832 68.9787 7.34667 70.3867 9.224 71.496C11.1013 72.648 13.1707 73.5013 15.432 74.056C17.6933 74.6107 19.912 74.888 22.088 74.888C22.9413 74.888 23.7733 74.8453 24.584 74.76C25.3947 74.7173 26.1627 74.6107 26.888 74.44C30.6427 73.5867 34.0773 72.1573 37.192 70.152C40.3493 68.1893 43.2293 65.8427 45.832 63.112C48.4347 60.3813 50.7813 57.4373 52.872 54.28C55.0053 51.1653 56.904 48.008 58.568 44.808C60.232 41.608 61.7253 38.5573 63.048 35.656C64.3707 32.7547 65.5227 30.1947 66.504 27.976C68.04 24.648 69.4907 21.6613 70.856 19.016C72.264 16.328 73.48 14.0667 74.504 12.232C75.5707 10.3973 76.3387 9.11733 76.808 8.392C74.7173 8.73333 72.392 9.288 69.832 10.056C67.3147 10.7813 64.7547 11.7413 62.152 12.936C59.592 14.1307 57.1813 15.5387 54.92 17.16C52.7013 18.7813 50.824 20.616 49.288 22.664C47.7947 24.712 46.8347 26.9947 46.408 29.512C46.3653 29.896 46.3227 30.2373 46.28 30.536C46.28 30.8347 46.28 31.1547 46.28 31.496C46.28 33.3733 46.7067 34.9307 47.56 36.168C48.4133 37.3627 49.6293 37.96 51.208 37.96C51.8907 37.96 52.744 37.7893 53.768 37.448C55.4747 36.8507 56.776 36.0187 57.672 34.952C58.6107 33.8853 59.272 32.7547 59.656 31.56C60.04 30.3653 60.232 29.32 60.232 28.424C60.232 27.3573 60.0613 26.6533 59.72 26.312C59.464 26.184 59.336 26.0133 59.336 25.8C59.336 25.416 59.5707 25.224 60.04 25.224C60.424 25.224 60.7653 25.416 61.064 25.8C61.448 26.7387 61.64 27.72 61.64 28.744C61.64 30.152 61.2773 31.56 60.552 32.968C59.8693 34.3333 58.9307 35.5493 57.736 36.616C56.584 37.6827 55.2613 38.472 53.768 38.984C52.616 39.4107 51.4213 39.624 50.184 39.624C47.8373 39.624 45.8747 38.856 44.296 37.32C42.7173 35.7413 41.928 33.6507 41.928 31.048C41.928 30.408 41.992 29.7467 42.12 29.064C42.5893 26.0773 43.7413 23.4533 45.576 21.192C47.4107 18.888 49.672 16.904 52.36 15.24C55.048 13.5333 57.9067 12.104 60.936 10.952C63.9653 9.8 66.952 8.88266 69.896 8.2C72.8827 7.47467 75.5493 6.96267 77.896 6.664C78.1093 6.36533 78.4933 5.85333 79.048 5.128C79.6027 4.40266 80.2427 3.67733 80.968 2.952C81.6933 2.22666 82.4187 1.75733 83.144 1.544C83.6133 1.416 84.0613 1.352 84.488 1.352C85.128 1.352 85.6613 1.52266 86.088 1.864C86.5147 2.16266 86.728 2.632 86.728 3.272C86.728 4.59466 86.152 5.55466 85 6.152C83.8907 6.74933 82.7173 7.24 81.48 7.624C81.096 7.624 80.6053 7.70933 80.008 7.88C79.4107 8.05066 78.984 8.136 78.728 8.136C76.6373 11.72 74.8667 15.4107 73.416 19.208C72.008 23.0053 70.6213 26.952 69.256 31.048C67.8907 35.1013 66.2907 39.2827 64.456 43.592C62.6213 47.8587 60.232 52.2747 57.288 56.84C55.4107 59.784 53.2133 62.408 50.696 64.712C48.1787 67.016 45.5333 68.9787 42.76 70.6C40.0293 72.264 37.3627 73.5867 34.76 74.568C32.1573 75.5493 29.7893 76.1893 27.656 76.488C26.5893 76.6587 25.544 76.7653 24.52 76.808C23.496 76.8933 22.4933 76.936 21.512 76.936ZM79.88 6.536C81.6293 6.23733 82.8027 5.87466 83.4 5.448C83.9973 4.97867 84.296 4.552 84.296 4.168C84.296 3.95467 84.2107 3.784 84.04 3.656C83.912 3.48533 83.784 3.4 83.656 3.4C83.4 3.272 83.0373 3.4 82.568 3.784C82.1413 4.168 81.672 4.63733 81.16 5.192C80.6907 5.704 80.264 6.152 79.88 6.536ZM73.8435 53C72.2222 53 71.0275 52.4667 70.2595 51.4C69.4915 50.2907 69.1075 48.9467 69.1075 47.368C69.1075 45.448 69.5555 43.4427 70.4515 41.352C71.3048 39.3893 72.3928 37.5973 73.7155 35.976C75.0382 34.3547 76.4675 33.0533 78.0035 32.072C79.5395 31.048 81.0328 30.536 82.4835 30.536C84.1048 30.536 85.2995 31.0693 86.0675 32.136C86.8355 33.2027 87.2195 34.5467 87.2195 36.168C87.2195 38.1307 86.7715 40.136 85.8755 42.184C85.3635 43.336 84.6382 44.616 83.6995 46.024C82.7608 47.3893 81.6942 48.648 80.4995 49.8C80.7555 50.2693 81.1182 50.6747 81.5875 51.016C82.0568 51.3147 82.6968 51.464 83.5075 51.464C84.5315 51.464 85.4915 51.0373 86.3875 50.184C87.3262 49.3307 88.1795 48.3067 88.9475 47.112C89.7155 45.8747 90.3982 44.6373 90.9955 43.4C91.5928 42.1627 92.0835 41.16 92.4675 40.392C92.5955 40.136 92.8088 40.008 93.1075 40.008C93.2782 40.008 93.4062 40.0933 93.4915 40.264C93.5768 40.392 93.5555 40.6053 93.4275 40.904C93.1715 41.544 92.7448 42.504 92.1475 43.784C91.5502 45.0213 90.8248 46.3227 89.9715 47.688C89.1182 49.0107 88.1368 50.1413 87.0275 51.08C85.9182 52.0187 84.6808 52.488 83.3155 52.488C82.3768 52.488 81.5662 52.3387 80.8835 52.04C80.2008 51.6987 79.6462 51.2933 79.2195 50.824C78.3235 51.5067 77.4275 52.04 76.5315 52.424C75.6355 52.808 74.7395 53 73.8435 53ZM74.8035 51.592C75.9555 51.592 77.1928 51.0373 78.5155 49.928C78.1742 49.416 77.9182 48.8827 77.7475 48.328C77.5768 47.7733 77.4915 47.2613 77.4915 46.792C77.4915 46.024 77.6622 45.3627 78.0035 44.808C78.3875 44.2533 78.9635 43.976 79.7315 43.976C80.2862 43.976 80.7342 44.1893 81.0755 44.616C81.4595 45 81.6515 45.448 81.6515 45.96C81.6515 46.088 81.6302 46.216 81.5875 46.344C81.5875 46.4293 81.5662 46.536 81.5235 46.664C82.2488 45.6827 82.9315 44.5307 83.5715 43.208C84.9795 40.1787 85.6835 37.6827 85.6835 35.72C85.6835 34.7387 85.4915 33.9707 85.1075 33.416C84.7235 32.8613 84.1475 32.584 83.3795 32.584C82.4835 32.584 81.5022 32.968 80.4355 33.736C79.4115 34.504 78.4088 35.528 77.4275 36.808C76.4888 38.088 75.6568 39.5173 74.9315 41.096C74.2488 42.5467 73.6942 43.9547 73.2675 45.32C72.8835 46.6427 72.6915 47.7947 72.6915 48.776C72.6915 49.6293 72.8622 50.312 73.2035 50.824C73.5448 51.336 74.0782 51.592 74.8035 51.592ZM99.377 27.016C98.737 27.016 98.2037 26.8027 97.777 26.376C97.393 25.9067 97.201 25.352 97.201 24.712C97.201 23.9013 97.521 23.1973 98.161 22.6C98.801 22.0027 99.505 21.704 100.273 21.704C100.956 21.704 101.51 21.9173 101.937 22.344C102.364 22.7707 102.577 23.2827 102.577 23.88C102.577 24.6907 102.257 25.416 101.617 26.056C100.977 26.696 100.23 27.016 99.377 27.016ZM94.193 53C92.6143 53 91.505 52.552 90.865 51.656C90.225 50.7173 89.905 49.6507 89.905 48.456C89.905 47.816 89.969 47.176 90.097 46.536C90.2677 45.8533 90.4597 45.2347 90.673 44.68L94.961 33.736C95.089 33.3947 95.153 33.096 95.153 32.84C95.153 32.4133 95.0463 32.0507 94.833 31.752C94.6197 31.4107 94.4703 31.176 94.385 31.048L97.905 30.92C98.545 30.8773 98.993 30.9627 99.249 31.176C99.5477 31.3467 99.697 31.56 99.697 31.816C99.697 32.072 99.5477 32.5413 99.249 33.224L93.937 45.704C93.937 45.704 93.809 45.9813 93.553 46.536C93.3397 47.048 93.2117 47.3893 93.169 47.56C93.041 48.2 92.9557 48.6053 92.913 48.776C92.8703 48.9467 92.849 49.0533 92.849 49.096C92.849 49.1387 92.849 49.3093 92.849 49.608C92.849 50.1627 92.977 50.632 93.233 51.016C93.5317 51.4 94.0223 51.592 94.705 51.592C95.1317 51.592 95.6223 51.464 96.177 51.208C96.7317 50.952 97.137 50.696 97.393 50.44C98.4597 49.3307 99.505 47.88 100.529 46.088C101.596 44.2533 102.577 42.44 103.473 40.648C103.644 40.2213 103.857 40.008 104.113 40.008C104.326 40.008 104.433 40.1573 104.433 40.456C104.433 40.6267 104.369 40.8827 104.241 41.224C103.814 42.12 103.281 43.2293 102.641 44.552C102.001 45.8747 101.233 47.1973 100.337 48.52C99.4837 49.8 98.545 50.8667 97.521 51.72C96.497 52.5733 95.3877 53 94.193 53ZM106.659 53.192C104.867 53.192 103.651 52.7227 103.011 51.784C102.371 50.8027 102.051 49.6507 102.051 48.328C102.051 46.9627 102.243 45.5547 102.627 44.104C103.011 42.6533 103.352 41.4373 103.651 40.456C104.334 38.0667 105.187 35.528 106.211 32.84C107.278 30.1093 108.43 27.4427 109.667 24.84C110.947 22.1947 112.206 19.8267 113.443 17.736C114.424 16.072 115.47 14.8347 116.579 14.024C117.731 13.1707 118.734 12.744 119.587 12.744C120.27 12.744 120.803 13 121.187 13.512C121.614 13.9813 121.827 14.7067 121.827 15.688C121.827 16.3707 121.699 17.1813 121.443 18.12C121.23 19.0587 120.846 20.1253 120.291 21.32C118.798 24.648 117.006 27.976 114.915 31.304C112.867 34.632 110.264 37.7467 107.107 40.648C106.936 41.2027 106.702 41.864 106.403 42.632C106.147 43.3573 105.912 44.104 105.699 44.872C105.443 46.024 105.315 47.0053 105.315 47.816C105.315 49.1387 105.571 50.1413 106.083 50.824C106.638 51.464 107.299 51.784 108.067 51.784C108.75 51.784 109.475 51.5493 110.243 51.08C111.011 50.568 111.736 49.8427 112.419 48.904C113.443 47.4107 114.36 45.896 115.171 44.36C116.024 42.7813 116.664 41.5653 117.091 40.712C117.347 40.2427 117.624 40.008 117.923 40.008C118.136 40.008 118.243 40.136 118.243 40.392C118.243 40.6053 118.179 40.84 118.051 41.096C117.667 41.9493 117.155 43.0587 116.515 44.424C115.918 45.7467 115.15 47.0907 114.211 48.456C113.315 49.7787 112.227 50.9093 110.947 51.848C109.71 52.744 108.28 53.192 106.659 53.192ZM107.619 38.6C109.155 37.0213 110.648 35.208 112.099 33.16C113.55 31.0693 114.894 28.9147 116.131 26.696C117.411 24.4347 118.478 22.3013 119.331 20.296C119.63 19.656 119.864 18.952 120.035 18.184C120.248 17.416 120.355 16.776 120.355 16.264C120.355 15.6667 120.206 15.368 119.907 15.368C119.736 15.368 119.48 15.5387 119.139 15.88C118.798 16.1787 118.35 16.712 117.795 17.48C116.984 18.5467 116.088 19.9973 115.107 21.832C114.168 23.6667 113.208 25.6293 112.227 27.72C111.246 29.8107 110.35 31.8373 109.539 33.8C108.728 35.72 108.088 37.32 107.619 38.6ZM118.556 53.256C116.465 53.256 114.972 52.7227 114.076 51.656C113.223 50.5467 112.796 49.3947 112.796 48.2C112.796 47.2187 113.031 46.3227 113.5 45.512C114.012 44.7013 114.609 44.2747 115.292 44.232C116.145 42.568 117.063 40.7547 118.044 38.792C119.068 36.8293 120.007 34.9307 120.86 33.096C121.457 31.8587 122.204 30.664 123.1 29.512C124.039 28.36 125.063 27.6987 126.172 27.528H126.812C127.153 27.528 127.452 27.5493 127.708 27.592C128.007 27.6347 128.305 27.72 128.604 27.848C129.073 28.0613 129.308 28.3813 129.308 28.808C129.308 29.064 129.159 29.192 128.86 29.192C128.732 29.192 128.561 29.128 128.348 29C127.836 28.7867 127.388 28.68 127.004 28.68C126.748 28.68 126.513 28.744 126.3 28.872C125.489 29.2987 124.913 29.896 124.572 30.664C124.273 31.432 124.124 32.2427 124.124 33.096C124.124 33.7787 124.188 34.4827 124.316 35.208C124.487 35.8907 124.679 36.5093 124.892 37.064C125.361 38.2587 125.852 39.432 126.364 40.584C126.919 41.736 127.196 42.9733 127.196 44.296C127.196 45.576 126.769 46.9413 125.916 48.392C125.063 49.8 123.975 50.9307 122.652 51.784L123.1 51.848C123.313 51.8907 123.463 51.912 123.548 51.912C123.633 51.912 123.697 51.912 123.74 51.912C124.721 51.912 125.639 51.6347 126.492 51.08C127.388 50.4827 128.177 49.7573 128.86 48.904C129.543 48.0507 130.311 46.856 131.164 45.32C132.06 43.784 132.913 42.1627 133.724 40.456C133.852 40.2427 134.001 40.136 134.172 40.136C134.385 40.136 134.535 40.2213 134.62 40.392C134.748 40.52 134.769 40.6907 134.684 40.904C134.129 42.0987 133.489 43.4 132.764 44.808C132.081 46.1733 131.292 47.496 130.396 48.776C129.5 50.0133 128.455 51.0373 127.26 51.848C126.108 52.616 124.807 53 123.356 53C123.015 53 122.652 52.9787 122.268 52.936C121.884 52.8933 121.5 52.808 121.116 52.68C120.689 52.8507 120.241 52.9787 119.772 53.064C119.345 53.192 118.94 53.256 118.556 53.256ZM120.476 51.336C121.201 50.7387 121.841 49.864 122.396 48.712C122.993 47.56 123.292 46.0453 123.292 44.168C123.292 42.504 123.121 40.7333 122.78 38.856C122.439 36.9787 122.268 35.3147 122.268 33.864C122.268 33.5653 122.268 33.3093 122.268 33.096C122.311 32.84 122.353 32.6053 122.396 32.392C121.841 33.544 121.201 34.888 120.476 36.424C119.751 37.9173 119.025 39.368 118.3 40.776C117.575 42.184 116.956 43.3787 116.444 44.36C116.444 44.36 116.551 44.3813 116.764 44.424C117.02 44.424 117.255 44.5733 117.468 44.872C117.681 45.128 117.767 45.6613 117.724 46.472C117.681 47.5387 117.916 48.5413 118.428 49.48C118.983 50.376 119.665 50.9947 120.476 51.336ZM118.044 52.232C118.3 52.232 118.535 52.2107 118.748 52.168C118.961 52.0827 119.153 52.0187 119.324 51.976C118.684 51.5067 118.108 50.888 117.596 50.12C117.127 49.3093 116.849 48.2853 116.764 47.048C115.996 47.8587 115.612 48.7333 115.612 49.672C115.612 50.3547 115.825 50.952 116.252 51.464C116.679 51.976 117.276 52.232 118.044 52.232ZM136.594 53C134.972 53 133.777 52.4667 133.01 51.4C132.242 50.2907 131.858 48.9467 131.858 47.368C131.858 45.448 132.306 43.4427 133.202 41.352C134.055 39.3893 135.143 37.5973 136.466 35.976C137.788 34.3547 139.218 33.0533 140.754 32.072C142.29 31.048 143.783 30.536 145.234 30.536C146.855 30.536 148.05 31.0693 148.818 32.136C149.586 33.2027 149.97 34.5467 149.97 36.168C149.97 38.1307 149.522 40.136 148.626 42.184C148.114 43.336 147.388 44.616 146.45 46.024C145.511 47.3893 144.444 48.648 143.25 49.8C143.506 50.2693 143.868 50.6747 144.338 51.016C144.807 51.3147 145.447 51.464 146.258 51.464C147.282 51.464 148.242 51.0373 149.138 50.184C150.076 49.3307 150.93 48.3067 151.698 47.112C152.466 45.8747 153.148 44.6373 153.746 43.4C154.343 42.1627 154.834 41.16 155.218 40.392C155.346 40.136 155.559 40.008 155.858 40.008C156.028 40.008 156.156 40.0933 156.242 40.264C156.327 40.392 156.306 40.6053 156.178 40.904C155.922 41.544 155.495 42.504 154.898 43.784C154.3 45.0213 153.575 46.3227 152.722 47.688C151.868 49.0107 150.887 50.1413 149.778 51.08C148.668 52.0187 147.431 52.488 146.066 52.488C145.127 52.488 144.316 52.3387 143.634 52.04C142.951 51.6987 142.396 51.2933 141.97 50.824C141.074 51.5067 140.178 52.04 139.282 52.424C138.386 52.808 137.49 53 136.594 53ZM137.554 51.592C138.706 51.592 139.943 51.0373 141.266 49.928C140.924 49.416 140.668 48.8827 140.498 48.328C140.327 47.7733 140.242 47.2613 140.242 46.792C140.242 46.024 140.412 45.3627 140.754 44.808C141.138 44.2533 141.714 43.976 142.482 43.976C143.036 43.976 143.484 44.1893 143.826 44.616C144.21 45 144.402 45.448 144.402 45.96C144.402 46.088 144.38 46.216 144.338 46.344C144.338 46.4293 144.316 46.536 144.274 46.664C144.999 45.6827 145.682 44.5307 146.322 43.208C147.73 40.1787 148.434 37.6827 148.434 35.72C148.434 34.7387 148.242 33.9707 147.858 33.416C147.474 32.8613 146.898 32.584 146.13 32.584C145.234 32.584 144.252 32.968 143.186 33.736C142.162 34.504 141.159 35.528 140.178 36.808C139.239 38.088 138.407 39.5173 137.682 41.096C136.999 42.5467 136.444 43.9547 136.018 45.32C135.634 46.6427 135.442 47.7947 135.442 48.776C135.442 49.6293 135.612 50.312 135.954 50.824C136.295 51.336 136.828 51.592 137.554 51.592ZM148.879 53.512C150.415 50.3973 151.887 47.3253 153.295 44.296C154.746 41.224 156.218 38.3013 157.711 35.528C158.564 33.992 159.268 32.9253 159.823 32.328C160.42 31.688 161.21 31.368 162.191 31.368C162.532 31.368 162.895 31.432 163.279 31.56C163.663 31.6453 164.047 31.688 164.431 31.688C164.687 31.688 164.879 31.6667 165.007 31.624C164.41 31.9653 163.642 32.8187 162.703 34.184C161.764 35.5067 160.804 37.0427 159.823 38.792C158.842 40.5413 157.967 42.184 157.199 43.72C158.01 42.7387 158.842 41.7573 159.695 40.776C160.591 39.7947 161.572 38.856 162.639 37.96C163.663 37.064 164.879 36.1467 166.287 35.208C167.738 34.2267 169.146 33.416 170.511 32.776C171.876 32.136 172.964 31.816 173.775 31.816C174.074 31.816 174.287 31.8373 174.415 31.88C174.415 31.88 174.18 32.3067 173.711 33.16C173.242 33.9707 172.644 35.0587 171.919 36.424C171.236 37.7467 170.532 39.176 169.807 40.712C169.082 42.2053 168.42 43.656 167.823 45.064C167.268 46.4293 166.906 47.5813 166.735 48.52C166.607 49.0747 166.543 49.5867 166.543 50.056C166.543 50.7387 166.671 51.1867 166.927 51.4C167.183 51.6133 167.46 51.72 167.759 51.72C168.57 51.72 169.423 51.2933 170.319 50.44C171.215 49.544 172.068 48.456 172.879 47.176C173.732 45.896 174.479 44.6587 175.119 43.464C175.802 42.2267 176.292 41.288 176.591 40.648C176.762 40.3067 176.89 40.1147 176.975 40.072C177.06 39.9867 177.188 39.944 177.359 39.944C177.615 39.944 177.743 40.1147 177.743 40.456C177.743 40.6693 177.679 40.904 177.551 41.16C177.039 42.1413 176.42 43.3147 175.695 44.68C175.012 46.0453 174.223 47.3893 173.327 48.712C172.431 49.992 171.45 51.08 170.383 51.976C169.316 52.8293 168.164 53.256 166.927 53.256C166.074 53.256 165.178 52.9573 164.239 52.36C163.343 51.7627 162.895 50.6533 162.895 49.032C162.895 48.5627 162.938 48.072 163.023 47.56C163.108 47.0053 163.258 46.408 163.471 45.768C163.812 44.9147 164.218 43.9973 164.687 43.016C165.156 42.0347 165.924 40.6907 166.991 38.984C167.29 38.5147 167.46 38.152 167.503 37.896C167.588 37.64 167.631 37.4267 167.631 37.256C167.631 36.744 167.396 36.488 166.927 36.488C166.543 36.488 165.967 36.7013 165.199 37.128C164.474 37.5547 163.556 38.3013 162.447 39.368C161.38 40.392 160.1 41.8427 158.607 43.72C157.156 45.5973 155.471 48.3707 153.551 52.04C153.252 52.5947 152.911 52.8933 152.527 52.936C152.186 52.9787 151.695 53.0213 151.055 53.064C150.628 53.1067 150.223 53.128 149.839 53.128C149.455 53.1707 149.135 53.2987 148.879 53.512ZM212.732 58.888C208.551 58.888 204.711 58.2693 201.212 57.032C197.756 55.7947 194.961 53.9813 192.828 51.592C190.695 49.16 189.521 46.1733 189.308 42.632C189.223 41.1813 189.457 39.5813 190.012 37.832C190.567 36.0827 191.335 34.3547 192.316 32.648C193.34 30.8987 194.535 29.3413 195.9 27.976C197.308 26.568 198.801 25.5013 200.38 24.776C200.508 24.6907 200.7 24.6267 200.956 24.584C201.255 24.5413 201.468 24.52 201.596 24.52C201.852 24.52 201.98 24.584 201.98 24.712C201.98 24.9253 201.66 25.2667 201.02 25.736C199.228 27.144 197.756 28.7653 196.604 30.6C195.409 32.4347 194.513 34.3973 193.916 36.488C193.319 38.5787 193.02 40.6907 193.02 42.824C193.02 45.3413 193.553 47.5173 194.62 49.352C195.729 51.144 197.201 52.616 199.036 53.768C200.871 54.9627 202.961 55.8373 205.308 56.392C207.655 56.9467 210.108 57.224 212.668 57.224C215.527 57.224 218.343 56.904 221.116 56.264C223.932 55.624 226.492 54.7067 228.796 53.512C232.337 51.6347 235.132 49.3093 237.18 46.536C239.271 43.7627 240.316 41.0107 240.316 38.28C240.316 36.8293 239.996 35.4427 239.356 34.12C238.759 32.7973 237.777 31.6027 236.412 30.536C235.388 29.7253 234.129 28.9573 232.636 28.232C231.185 27.5067 229.628 26.8027 227.964 26.12C226.343 25.4373 224.743 24.7547 223.164 24.072C221.585 23.3467 220.199 22.5787 219.004 21.768C217.297 20.616 216.039 19.3787 215.228 18.056C214.46 16.7333 214.076 15.4107 214.076 14.088C214.076 12.5093 214.524 10.9733 215.42 9.48C216.359 7.98667 217.617 6.64266 219.196 5.448C220.817 4.21067 222.631 3.25067 224.636 2.568C226.385 1.97066 228.284 1.50133 230.332 1.16C232.423 0.818665 234.471 0.647999 236.476 0.647999C238.14 0.647999 239.719 0.775998 241.212 1.032C242.748 1.24533 244.092 1.65066 245.244 2.248C246.695 2.93067 247.804 3.848 248.572 5C249.34 6.10933 249.724 7.28266 249.724 8.52C249.724 10.2267 248.956 11.72 247.42 13C246.865 13.4267 246.247 13.832 245.564 14.216C244.881 14.5573 244.071 14.856 243.132 15.112C242.961 15.1547 242.769 15.176 242.556 15.176C242.044 15.176 241.788 15.0267 241.788 14.728C241.788 14.5573 241.916 14.3867 242.172 14.216C242.471 14.0027 242.897 13.8747 243.452 13.832C244.732 13.6613 245.692 13.1707 246.332 12.36C247.015 11.5493 247.356 10.6107 247.356 9.544C247.356 8.43466 246.972 7.34666 246.204 6.28C245.479 5.17066 244.348 4.25333 242.812 3.528C241.276 2.76 239.313 2.376 236.924 2.376C235.559 2.376 234.044 2.52533 232.38 2.824C230.759 3.12267 228.988 3.61333 227.068 4.296C224.721 5.10666 222.759 6.30133 221.18 7.88C219.644 9.45866 218.876 11.144 218.876 12.936C218.876 14.0453 219.239 15.176 219.964 16.328C220.732 17.4373 221.948 18.504 223.612 19.528C225.02 20.3813 226.62 21.2347 228.412 22.088C230.204 22.8987 232.017 23.7307 233.852 24.584C235.687 25.3947 237.351 26.2693 238.844 27.208C241.191 28.6587 242.876 30.216 243.9 31.88C244.924 33.544 245.436 35.2507 245.436 37C245.436 39.048 244.817 41.1173 243.58 43.208C242.385 45.256 240.807 47.1973 238.844 49.032C236.881 50.824 234.727 52.424 232.38 53.832C229.649 55.4533 226.556 56.6907 223.1 57.544C219.687 58.44 216.231 58.888 212.732 58.888ZM264.908 53.192C264.439 53.2347 263.905 53.128 263.308 52.872C262.711 52.616 262.177 52.1467 261.708 51.464C261.281 50.7813 261.068 49.8213 261.068 48.584C261.068 47.56 261.26 46.3227 261.644 44.872C261.132 45.6827 260.471 46.6853 259.66 47.88C258.849 49.032 257.975 50.056 257.036 50.952C256.225 51.72 255.457 52.2747 254.732 52.616C254.007 52.9573 253.345 53.128 252.748 53.128C251.639 53.128 250.743 52.6373 250.06 51.656C249.377 50.632 249.036 49.3093 249.036 47.688C249.036 45.9813 249.463 44.04 250.316 41.864C251.169 39.688 252.556 37.4267 254.476 35.08C255.713 33.5867 257.207 32.392 258.956 31.496C260.748 30.5573 262.497 30.088 264.204 30.088C265.185 30.088 266.124 30.2587 267.02 30.6C267.916 30.8987 268.705 31.4107 269.388 32.136C269.687 32.4347 269.836 32.776 269.836 33.16C269.836 33.416 269.729 33.6293 269.516 33.8C269.303 33.9707 269.025 34.0133 268.684 33.928C268.215 32.4347 267.212 31.688 265.676 31.688C264.951 31.688 264.119 31.9227 263.18 32.392C261.729 33.16 260.215 34.4187 258.636 36.168C257.1 37.9173 255.756 39.7307 254.604 41.608C254.433 41.864 254.156 42.3547 253.772 43.08C253.431 43.8053 253.089 44.616 252.748 45.512C252.407 46.408 252.172 47.2827 252.044 48.136C252.001 48.392 251.98 48.584 251.98 48.712C251.98 48.7973 251.98 48.9467 251.98 49.16C251.98 50.568 252.513 51.272 253.58 51.272C254.86 51.272 256.311 50.3333 257.932 48.456C259.041 47.0907 260.044 45.6613 260.94 44.168C261.836 42.6747 262.753 41.0747 263.692 39.368C264.332 38.216 264.929 37.256 265.484 36.488C266.039 35.72 266.828 35.336 267.852 35.336C268.321 35.336 268.791 35.4 269.26 35.528C269.729 35.656 270.22 35.6773 270.732 35.592C270.391 35.9333 269.921 36.5733 269.324 37.512C268.769 38.4507 268.172 39.5173 267.532 40.712C266.892 41.9067 266.316 43.1227 265.804 44.36C265.292 45.5973 264.929 46.664 264.716 47.56C264.673 47.816 264.609 48.1787 264.524 48.648C264.481 49.1173 264.46 49.4587 264.46 49.672C264.46 50.8667 264.801 51.464 265.484 51.464C266.167 51.464 266.892 51.0587 267.66 50.248C268.471 49.4373 269.26 48.4347 270.028 47.24C270.796 46.0453 271.5 44.8507 272.14 43.656C272.78 42.4187 273.292 41.416 273.676 40.648C273.847 40.2213 274.103 40.008 274.444 40.008C274.657 40.008 274.764 40.1573 274.764 40.456C274.764 40.584 274.7 40.8187 274.572 41.16C274.06 42.2267 273.441 43.4427 272.716 44.808C271.991 46.1307 271.201 47.432 270.348 48.712C269.495 49.9493 268.599 50.9947 267.66 51.848C266.764 52.6587 265.847 53.1067 264.908 53.192ZM267.504 53.512C269.04 50.3973 270.512 47.3253 271.92 44.296C273.371 41.224 274.843 38.3013 276.336 35.528C277.189 33.992 277.893 32.9253 278.448 32.328C279.045 31.688 279.835 31.368 280.816 31.368C281.157 31.368 281.52 31.432 281.904 31.56C282.288 31.6453 282.672 31.688 283.056 31.688C283.312 31.688 283.504 31.6667 283.632 31.624C283.035 31.9653 282.267 32.8187 281.328 34.184C280.389 35.5067 279.429 37.0427 278.448 38.792C277.467 40.5413 276.592 42.184 275.824 43.72C276.635 42.7387 277.467 41.7573 278.32 40.776C279.216 39.7947 280.197 38.856 281.264 37.96C282.288 37.064 283.504 36.1467 284.912 35.208C286.363 34.2267 287.771 33.416 289.136 32.776C290.501 32.136 291.589 31.816 292.4 31.816C292.699 31.816 292.912 31.8373 293.04 31.88C293.04 31.88 292.805 32.3067 292.336 33.16C291.867 33.9707 291.269 35.0587 290.544 36.424C289.861 37.7467 289.157 39.176 288.432 40.712C287.707 42.2053 287.045 43.656 286.448 45.064C285.893 46.4293 285.531 47.5813 285.36 48.52C285.232 49.0747 285.168 49.5867 285.168 50.056C285.168 50.7387 285.296 51.1867 285.552 51.4C285.808 51.6133 286.085 51.72 286.384 51.72C287.195 51.72 288.048 51.2933 288.944 50.44C289.84 49.544 290.693 48.456 291.504 47.176C292.357 45.896 293.104 44.6587 293.744 43.464C294.427 42.2267 294.917 41.288 295.216 40.648C295.387 40.3067 295.515 40.1147 295.6 40.072C295.685 39.9867 295.813 39.944 295.984 39.944C296.24 39.944 296.368 40.1147 296.368 40.456C296.368 40.6693 296.304 40.904 296.176 41.16C295.664 42.1413 295.045 43.3147 294.32 44.68C293.637 46.0453 292.848 47.3893 291.952 48.712C291.056 49.992 290.075 51.08 289.008 51.976C287.941 52.8293 286.789 53.256 285.552 53.256C284.699 53.256 283.803 52.9573 282.864 52.36C281.968 51.7627 281.52 50.6533 281.52 49.032C281.52 48.5627 281.563 48.072 281.648 47.56C281.733 47.0053 281.883 46.408 282.096 45.768C282.437 44.9147 282.843 43.9973 283.312 43.016C283.781 42.0347 284.549 40.6907 285.616 38.984C285.915 38.5147 286.085 38.152 286.128 37.896C286.213 37.64 286.256 37.4267 286.256 37.256C286.256 36.744 286.021 36.488 285.552 36.488C285.168 36.488 284.592 36.7013 283.824 37.128C283.099 37.5547 282.181 38.3013 281.072 39.368C280.005 40.392 278.725 41.8427 277.232 43.72C275.781 45.5973 274.096 48.3707 272.176 52.04C271.877 52.5947 271.536 52.8933 271.152 52.936C270.811 52.9787 270.32 53.0213 269.68 53.064C269.253 53.1067 268.848 53.128 268.464 53.128C268.08 53.1707 267.76 53.2987 267.504 53.512ZM298.22 53C297.025 53 295.959 52.5947 295.02 51.784C294.081 50.9307 293.612 49.608 293.612 47.816C293.612 46.408 293.868 44.68 294.38 42.632C294.935 40.5413 295.596 38.3867 296.364 36.168C297.175 33.9067 297.964 31.8587 298.732 30.024H295.34C295.041 30.024 294.892 29.8107 294.892 29.384C294.892 29.1707 294.935 28.9787 295.02 28.808C295.148 28.6373 295.319 28.552 295.532 28.552H299.372C300.097 26.9307 300.865 25.352 301.676 23.816C302.487 22.28 303.276 20.8293 304.044 19.464C305.025 17.7573 306.071 16.4773 307.18 15.624C308.289 14.7707 309.249 14.344 310.06 14.344C310.7 14.344 311.233 14.6 311.66 15.112C312.087 15.5813 312.3 16.3067 312.3 17.288C312.3 17.8853 312.172 18.7173 311.916 19.784C311.66 20.808 311.255 21.896 310.7 23.048C310.401 23.6453 309.975 24.4987 309.42 25.608C308.908 26.7173 308.396 27.6987 307.884 28.552H310.956C311.255 28.552 311.404 28.7653 311.404 29.192C311.404 29.3627 311.361 29.5547 311.276 29.768C311.191 29.9387 311.063 30.024 310.892 30.024H307.116C306.049 31.8587 304.833 33.6507 303.468 35.4C302.103 37.1493 300.481 38.8987 298.604 40.648C298.476 41.032 298.305 41.5867 298.092 42.312C297.921 43.0373 297.751 43.784 297.58 44.552C297.452 45.2773 297.324 45.896 297.196 46.408C297.111 46.92 297.068 47.176 297.068 47.176C296.94 47.7307 296.876 48.2427 296.876 48.712C296.876 49.608 297.089 50.2693 297.516 50.696C297.943 51.08 298.433 51.272 298.988 51.272C299.329 51.272 299.671 51.2293 300.012 51.144C300.353 51.016 300.737 50.8027 301.164 50.504C302.657 49.4373 303.959 47.9867 305.068 46.152C306.22 44.3173 307.223 42.5467 308.076 40.84C308.332 40.328 308.588 40.072 308.844 40.072C309.015 40.072 309.1 40.2 309.1 40.456C309.1 40.584 309.036 40.8187 308.908 41.16C307.969 43.1227 307.18 44.7013 306.54 45.896C305.9 47.0907 305.281 48.0933 304.684 48.904C304.087 49.672 303.383 50.44 302.572 51.208C301.975 51.8053 301.292 52.2533 300.524 52.552C299.756 52.8507 298.988 53 298.22 53ZM303.276 28.552H306.54C307.137 27.4427 307.692 26.3547 308.204 25.288C308.759 24.2213 309.249 23.1547 309.676 22.088C309.975 21.4053 310.231 20.6373 310.444 19.784C310.657 18.9307 310.764 18.2693 310.764 17.8C310.764 17.16 310.615 16.84 310.316 16.84C310.103 16.84 309.783 17.032 309.356 17.416C308.972 17.7573 308.481 18.3547 307.884 19.208C307.116 20.2747 306.348 21.6613 305.58 23.368C304.855 25.032 304.087 26.76 303.276 28.552ZM299.116 38.6C300.353 37.32 301.505 35.9547 302.572 34.504C303.681 33.0533 304.705 31.56 305.644 30.024H302.636C301.953 31.6027 301.313 33.1387 300.716 34.632C300.119 36.1253 299.585 37.448 299.116 38.6ZM311.031 53C309.41 53 308.215 52.4667 307.447 51.4C306.679 50.2907 306.295 48.9467 306.295 47.368C306.295 45.448 306.743 43.4427 307.639 41.352C308.492 39.3893 309.58 37.5973 310.903 35.976C312.226 34.3547 313.655 33.0533 315.191 32.072C316.727 31.048 318.22 30.536 319.671 30.536C321.292 30.536 322.487 31.0693 323.255 32.136C324.023 33.2027 324.407 34.5467 324.407 36.168C324.407 38.1307 323.959 40.136 323.063 42.184C322.551 43.336 321.826 44.616 320.887 46.024C319.948 47.3893 318.882 48.648 317.687 49.8C317.943 50.2693 318.306 50.6747 318.775 51.016C319.244 51.3147 319.884 51.464 320.695 51.464C321.719 51.464 322.679 51.0373 323.575 50.184C324.514 49.3307 325.367 48.3067 326.135 47.112C326.903 45.8747 327.586 44.6373 328.183 43.4C328.78 42.1627 329.271 41.16 329.655 40.392C329.783 40.136 329.996 40.008 330.295 40.008C330.466 40.008 330.594 40.0933 330.679 40.264C330.764 40.392 330.743 40.6053 330.615 40.904C330.359 41.544 329.932 42.504 329.335 43.784C328.738 45.0213 328.012 46.3227 327.159 47.688C326.306 49.0107 325.324 50.1413 324.215 51.08C323.106 52.0187 321.868 52.488 320.503 52.488C319.564 52.488 318.754 52.3387 318.071 52.04C317.388 51.6987 316.834 51.2933 316.407 50.824C315.511 51.5067 314.615 52.04 313.719 52.424C312.823 52.808 311.927 53 311.031 53ZM311.991 51.592C313.143 51.592 314.38 51.0373 315.703 49.928C315.362 49.416 315.106 48.8827 314.935 48.328C314.764 47.7733 314.679 47.2613 314.679 46.792C314.679 46.024 314.85 45.3627 315.191 44.808C315.575 44.2533 316.151 43.976 316.919 43.976C317.474 43.976 317.922 44.1893 318.263 44.616C318.647 45 318.839 45.448 318.839 45.96C318.839 46.088 318.818 46.216 318.775 46.344C318.775 46.4293 318.754 46.536 318.711 46.664C319.436 45.6827 320.119 44.5307 320.759 43.208C322.167 40.1787 322.871 37.6827 322.871 35.72C322.871 34.7387 322.679 33.9707 322.295 33.416C321.911 32.8613 321.335 32.584 320.567 32.584C319.671 32.584 318.69 32.968 317.623 33.736C316.599 34.504 315.596 35.528 314.615 36.808C313.676 38.088 312.844 39.5173 312.119 41.096C311.436 42.5467 310.882 43.9547 310.455 45.32C310.071 46.6427 309.879 47.7947 309.879 48.776C309.879 49.6293 310.05 50.312 310.391 50.824C310.732 51.336 311.266 51.592 311.991 51.592ZM330.869 53.256C328.778 53.256 327.285 52.7227 326.389 51.656C325.535 50.5467 325.108 49.3947 325.108 48.2C325.108 47.2187 325.343 46.3227 325.812 45.512C326.325 44.7013 326.922 44.2747 327.605 44.232C328.458 42.568 329.375 40.7547 330.357 38.792C331.381 36.8293 332.319 34.9307 333.173 33.096C333.77 31.8587 334.517 30.664 335.413 29.512C336.351 28.36 337.375 27.6987 338.485 27.528H339.125C339.466 27.528 339.765 27.5493 340.021 27.592C340.319 27.6347 340.618 27.72 340.917 27.848C341.386 28.0613 341.621 28.3813 341.621 28.808C341.621 29.064 341.471 29.192 341.173 29.192C341.045 29.192 340.874 29.128 340.661 29C340.149 28.7867 339.701 28.68 339.317 28.68C339.061 28.68 338.826 28.744 338.613 28.872C337.802 29.2987 337.226 29.896 336.885 30.664C336.586 31.432 336.437 32.2427 336.437 33.096C336.437 33.7787 336.501 34.4827 336.629 35.208C336.799 35.8907 336.991 36.5093 337.205 37.064C337.674 38.2587 338.165 39.432 338.677 40.584C339.231 41.736 339.509 42.9733 339.509 44.296C339.509 45.576 339.082 46.9413 338.229 48.392C337.375 49.8 336.287 50.9307 334.965 51.784L335.413 51.848C335.626 51.8907 335.775 51.912 335.861 51.912C335.946 51.912 336.01 51.912 336.053 51.912C337.034 51.912 337.951 51.6347 338.805 51.08C339.701 50.4827 340.49 49.7573 341.173 48.904C341.855 48.0507 342.623 46.856 343.477 45.32C344.373 43.784 345.226 42.1627 346.037 40.456C346.165 40.2427 346.314 40.136 346.485 40.136C346.698 40.136 346.847 40.2213 346.933 40.392C347.061 40.52 347.082 40.6907 346.997 40.904C346.442 42.0987 345.802 43.4 345.077 44.808C344.394 46.1733 343.605 47.496 342.708 48.776C341.813 50.0133 340.767 51.0373 339.573 51.848C338.421 52.616 337.119 53 335.669 53C335.327 53 334.965 52.9787 334.581 52.936C334.197 52.8933 333.813 52.808 333.429 52.68C333.002 52.8507 332.554 52.9787 332.085 53.064C331.658 53.192 331.253 53.256 330.869 53.256ZM332.789 51.336C333.514 50.7387 334.154 49.864 334.709 48.712C335.306 47.56 335.605 46.0453 335.605 44.168C335.605 42.504 335.434 40.7333 335.093 38.856C334.751 36.9787 334.581 35.3147 334.581 33.864C334.581 33.5653 334.581 33.3093 334.581 33.096C334.623 32.84 334.666 32.6053 334.709 32.392C334.154 33.544 333.514 34.888 332.789 36.424C332.063 37.9173 331.338 39.368 330.613 40.776C329.887 42.184 329.269 43.3787 328.757 44.36C328.757 44.36 328.863 44.3813 329.077 44.424C329.333 44.424 329.567 44.5733 329.781 44.872C329.994 45.128 330.079 45.6613 330.036 46.472C329.994 47.5387 330.229 48.5413 330.741 49.48C331.295 50.376 331.978 50.9947 332.789 51.336ZM330.357 52.232C330.613 52.232 330.847 52.2107 331.061 52.168C331.274 52.0827 331.466 52.0187 331.637 51.976C330.997 51.5067 330.421 50.888 329.909 50.12C329.439 49.3093 329.162 48.2853 329.077 47.048C328.309 47.8587 327.924 48.7333 327.924 49.672C327.924 50.3547 328.138 50.952 328.565 51.464C328.991 51.976 329.589 52.232 330.357 52.232Z" fill="black"/>
</svg>
