<svg width="25px" height="25px" viewBox="0 0 211 211" fill="none" xmlns="http://www.w3.org/2000/svg">
<path d="M129.497 17.5834H81.4946V55.915H129.497V17.5834Z" fill="#233AAF"/>
<path d="M142.693 17.5834V55.915H192.278C187.794 31.738 169.947 17.6713 142.693 17.5834Z" fill="#233AAF"/>
<path d="M17.5834 69.097V142.332C17.5834 174.333 36.6613 193.411 68.663 193.411H142.337C174.339 193.411 193.417 174.333 193.417 142.332V69.097H17.5834ZM126.952 142.244L108.665 152.794C104.797 154.992 101.016 156.135 97.4996 156.135C94.8621 156.135 92.4884 155.519 90.2905 154.288C85.1913 151.387 82.378 145.409 82.378 137.672V116.572C82.378 108.836 85.1913 102.857 90.2905 99.956C95.3896 96.9668 101.895 97.4943 108.665 101.451L126.952 112.001C133.721 115.869 137.414 121.32 137.414 127.21C137.414 133.101 133.633 138.288 126.952 142.244Z" fill="#233AAF"/>
<path d="M68.3017 17.5834C41.0475 17.6713 23.2004 31.738 18.7167 55.915H68.3017V17.5834Z" fill="#233AAF"/>
</svg>
