<svg width="25px" height="25px" viewBox="0 0 123 123" fill="none" xmlns="http://www.w3.org/2000/svg">
<g clip-path="url(#clip0_211_30)">
<path d="M104 31.15C106.31 36.8 109.11 43.09 110.52 48.7C111.785 53.6756 112.304 58.8117 112.06 63.9399C111.821 69.0625 110.81 74.1196 109.06 78.94C107.331 83.6915 104.89 88.1525 101.82 92.17C98.7611 96.142 95.1122 99.6223 91 102.49C89.4722 103.57 87.8901 104.571 86.26 105.49C84.6333 106.41 82.9667 107.24 81.26 107.98C77.6157 109.599 73.7973 110.794 69.88 111.54C66.0361 112.274 62.1187 112.549 58.21 112.36L57 112.28L54.24 122.56L56.13 122.71C61.1136 123.091 66.1252 122.853 71.05 122C76.047 121.116 80.919 119.632 85.56 117.58C87.52 116.713 89.4633 115.737 91.39 114.65C93.26 113.59 95.14 112.4 97.01 111.1C107.122 104.063 114.805 94.0638 119 82.48C123.216 70.8008 123.808 58.1213 120.7 46.0999C118.7 40.3299 116.52 32.71 112.39 26.88C109.66 23.02 101.66 25.31 104.04 31.15H104ZM56 44.74C55.9688 44.0199 56.0837 43.301 56.3378 42.6266C56.5918 41.9521 56.9798 41.3361 57.4782 40.8156C57.9767 40.295 58.5754 39.8808 59.2382 39.5978C59.901 39.3148 60.6143 39.1689 61.335 39.1689C62.0557 39.1689 62.769 39.3148 63.4318 39.5978C64.0946 39.8808 64.6933 40.295 65.1918 40.8156C65.6902 41.3361 66.0782 41.9521 66.3322 42.6266C66.5863 43.301 66.7012 44.0199 66.67 44.74V56.0999H78C79.4163 56.0999 80.7745 56.6626 81.7759 57.664C82.7774 58.6654 83.34 60.0237 83.34 61.4399C83.34 62.8562 82.7774 64.2145 81.7759 65.2159C80.7745 66.2173 79.4163 66.78 78 66.78H66.66V78.14C66.6912 78.86 66.5763 79.5789 66.3222 80.2533C66.0682 80.9278 65.6802 81.5438 65.1818 82.0643C64.6833 82.5849 64.0846 82.9991 63.4218 83.2821C62.759 83.5651 62.0457 83.711 61.325 83.711C60.6043 83.711 59.891 83.5651 59.2282 83.2821C58.5654 82.9991 57.9667 82.5849 57.4682 82.0643C56.9698 81.5438 56.5818 80.9278 56.3278 80.2533C56.0737 79.5789 55.9588 78.86 55.99 78.14V66.78H44.62C43.2037 66.78 41.8455 66.2173 40.844 65.2159C39.8426 64.2145 39.28 62.8562 39.28 61.4399C39.28 60.0237 39.8426 58.6654 40.844 57.664C41.8455 56.6626 43.2037 56.0999 44.62 56.0999H56V44.74ZM24.25 110.36C27.7955 113.115 31.6397 115.464 35.71 117.36L37.4 118.15L40.15 107.9L39 107.35C36.0364 105.876 33.2289 104.107 30.62 102.07C27.9787 100.007 25.55 97.6855 23.37 95.14L22.52 94.14L13.35 99.43L14.53 100.86C17.4088 104.37 20.6688 107.55 24.25 110.34V110.36ZM0.57 69.53C1.20802 74.0265 2.35885 78.4352 4 82.67L4.65 84.39L13.82 79.1L13.38 77.86C12.2524 74.7098 11.4482 71.453 10.98 68.14C10.514 64.8281 10.39 61.4772 10.61 58.1399L10.68 56.8499L0.41 54.15L0.24 56C-0.170953 60.5076 -0.0602201 65.0477 0.57 69.53ZM8.38 31C7.46 32.55 6.63 34.11 5.87 35.7L5.06 37.4L15.31 40.15L15.89 39C16.47 37.87 17.08 36.7699 17.72 35.7099C18.36 34.6499 19.07 33.58 19.82 32.54C21.0352 30.8313 22.3369 29.1858 23.72 27.61C25.0622 26.0666 26.4912 24.6009 28 23.22L28.93 22.37L23.62 13.16L22.18 14.41C20.1541 16.1754 18.2372 18.0622 16.44 20.06C14.6036 22.0976 12.8841 24.2377 11.29 26.47C10.24 27.95 9.29 29.47 8.37 30.97L8.38 31ZM50.44 0.779952C46.9692 1.36138 43.5631 2.27904 40.27 3.51995L38.53 4.16995L43.83 13.35L45.05 12.92C50.0978 11.1712 55.4198 10.348 60.76 10.49C61.97 10.49 63.24 10.6 64.55 10.75C65.86 10.9 67.06 11.08 68.29 11.33C69.52 11.58 70.84 11.89 72.09 12.26C73.34 12.63 74.59 13.06 75.88 13.56C76.5233 13.8177 77.2113 13.9453 77.9042 13.9353C78.5971 13.9254 79.2812 13.7781 79.9168 13.502C80.5524 13.2258 81.127 12.8264 81.6071 12.3267C82.0873 11.827 82.4636 11.2371 82.7143 10.591C82.9649 9.94491 83.0849 9.25553 83.0673 8.56275C83.0497 7.86998 82.8948 7.18758 82.6117 6.55506C82.3286 5.92254 81.9228 5.35246 81.4178 4.87783C80.9129 4.40319 80.3188 4.03343 79.67 3.78995C78.15 3.19995 76.59 2.66995 75 2.19995C73.41 1.72995 71.88 1.35995 70.35 1.04995C68.82 0.739952 67.28 0.499952 65.76 0.329952C64.24 0.159952 62.63 0.0499521 61 -4.79165e-05C57.4632 -0.0749507 53.9274 0.186222 50.44 0.779952Z" fill="#233AAF"/>
</g>
<defs>
<clipPath id="clip0_211_30">
<rect width="122.64" height="122.88" fill="white"/>
</clipPath>
</defs>
</svg>
